G04 (created by PCBNEW-RS274X (2012-apr-16-27)-stable) date Thu 10 Jul 2014 06:21:53 PM PDT*
G01*
G70*
G90*
%MOIN*%
G04 Gerber Fmt 3.4, Leading zero omitted, Abs format*
%FSLAX34Y34*%
G04 APERTURE LIST*
%ADD10C,0.006000*%
%ADD11C,0.012000*%
%ADD12C,0.008000*%
%ADD13C,0.015000*%
%ADD14C,0.010000*%
%ADD15C,0.007900*%
%ADD16C,0.003500*%
G04 APERTURE END LIST*
G54D10*
X31321Y-39256D02*
X31021Y-39256D01*
X31021Y-39141D01*
X31036Y-39113D01*
X31050Y-39098D01*
X31079Y-39084D01*
X31121Y-39084D01*
X31150Y-39098D01*
X31164Y-39113D01*
X31179Y-39141D01*
X31179Y-39256D01*
X31321Y-38956D02*
X31021Y-38956D01*
X31321Y-38827D02*
X31164Y-38827D01*
X31136Y-38841D01*
X31121Y-38870D01*
X31121Y-38913D01*
X31136Y-38941D01*
X31150Y-38956D01*
X31321Y-38642D02*
X31307Y-38670D01*
X31293Y-38685D01*
X31264Y-38699D01*
X31179Y-38699D01*
X31150Y-38685D01*
X31136Y-38670D01*
X31121Y-38642D01*
X31121Y-38599D01*
X31136Y-38570D01*
X31150Y-38556D01*
X31179Y-38542D01*
X31264Y-38542D01*
X31293Y-38556D01*
X31307Y-38570D01*
X31321Y-38599D01*
X31321Y-38642D01*
X31121Y-38456D02*
X31121Y-38342D01*
X31021Y-38414D02*
X31279Y-38414D01*
X31307Y-38399D01*
X31321Y-38371D01*
X31321Y-38342D01*
X31321Y-38200D02*
X31307Y-38228D01*
X31293Y-38243D01*
X31264Y-38257D01*
X31179Y-38257D01*
X31150Y-38243D01*
X31136Y-38228D01*
X31121Y-38200D01*
X31121Y-38157D01*
X31136Y-38128D01*
X31150Y-38114D01*
X31179Y-38100D01*
X31264Y-38100D01*
X31293Y-38114D01*
X31307Y-38128D01*
X31321Y-38157D01*
X31321Y-38200D01*
X31121Y-37843D02*
X31364Y-37843D01*
X31393Y-37857D01*
X31407Y-37872D01*
X31421Y-37900D01*
X31421Y-37943D01*
X31407Y-37972D01*
X31307Y-37843D02*
X31321Y-37872D01*
X31321Y-37929D01*
X31307Y-37957D01*
X31293Y-37972D01*
X31264Y-37986D01*
X31179Y-37986D01*
X31150Y-37972D01*
X31136Y-37957D01*
X31121Y-37929D01*
X31121Y-37872D01*
X31136Y-37843D01*
X31321Y-37572D02*
X31164Y-37572D01*
X31136Y-37586D01*
X31121Y-37615D01*
X31121Y-37672D01*
X31136Y-37701D01*
X31307Y-37572D02*
X31321Y-37601D01*
X31321Y-37672D01*
X31307Y-37701D01*
X31279Y-37715D01*
X31250Y-37715D01*
X31221Y-37701D01*
X31207Y-37672D01*
X31207Y-37601D01*
X31193Y-37572D01*
X31121Y-37472D02*
X31121Y-37358D01*
X31021Y-37430D02*
X31279Y-37430D01*
X31307Y-37415D01*
X31321Y-37387D01*
X31321Y-37358D01*
X31307Y-37144D02*
X31321Y-37173D01*
X31321Y-37230D01*
X31307Y-37259D01*
X31279Y-37273D01*
X31164Y-37273D01*
X31136Y-37259D01*
X31121Y-37230D01*
X31121Y-37173D01*
X31136Y-37144D01*
X31164Y-37130D01*
X31193Y-37130D01*
X31221Y-37273D01*
X31801Y-39398D02*
X31659Y-39498D01*
X31801Y-39570D02*
X31501Y-39570D01*
X31501Y-39455D01*
X31516Y-39427D01*
X31530Y-39412D01*
X31559Y-39398D01*
X31601Y-39398D01*
X31630Y-39412D01*
X31644Y-39427D01*
X31659Y-39455D01*
X31659Y-39570D01*
X31787Y-39155D02*
X31801Y-39184D01*
X31801Y-39241D01*
X31787Y-39270D01*
X31759Y-39284D01*
X31644Y-39284D01*
X31616Y-39270D01*
X31601Y-39241D01*
X31601Y-39184D01*
X31616Y-39155D01*
X31644Y-39141D01*
X31673Y-39141D01*
X31701Y-39284D01*
X31787Y-39027D02*
X31801Y-38998D01*
X31801Y-38941D01*
X31787Y-38913D01*
X31759Y-38898D01*
X31744Y-38898D01*
X31716Y-38913D01*
X31701Y-38941D01*
X31701Y-38984D01*
X31687Y-39013D01*
X31659Y-39027D01*
X31644Y-39027D01*
X31616Y-39013D01*
X31601Y-38984D01*
X31601Y-38941D01*
X31616Y-38913D01*
X31787Y-38655D02*
X31801Y-38684D01*
X31801Y-38741D01*
X31787Y-38770D01*
X31759Y-38784D01*
X31644Y-38784D01*
X31616Y-38770D01*
X31601Y-38741D01*
X31601Y-38684D01*
X31616Y-38655D01*
X31644Y-38641D01*
X31673Y-38641D01*
X31701Y-38784D01*
X31601Y-38555D02*
X31601Y-38441D01*
X31501Y-38513D02*
X31759Y-38513D01*
X31787Y-38498D01*
X31801Y-38470D01*
X31801Y-38441D01*
X31801Y-38113D02*
X31501Y-38113D01*
X31616Y-38113D02*
X31601Y-38084D01*
X31601Y-38027D01*
X31616Y-37998D01*
X31630Y-37984D01*
X31659Y-37970D01*
X31744Y-37970D01*
X31773Y-37984D01*
X31787Y-37998D01*
X31801Y-38027D01*
X31801Y-38084D01*
X31787Y-38113D01*
X31601Y-37713D02*
X31801Y-37713D01*
X31601Y-37842D02*
X31759Y-37842D01*
X31787Y-37827D01*
X31801Y-37799D01*
X31801Y-37756D01*
X31787Y-37727D01*
X31773Y-37713D01*
X31601Y-37613D02*
X31601Y-37499D01*
X31501Y-37571D02*
X31759Y-37571D01*
X31787Y-37556D01*
X31801Y-37528D01*
X31801Y-37499D01*
X31601Y-37442D02*
X31601Y-37328D01*
X31501Y-37400D02*
X31759Y-37400D01*
X31787Y-37385D01*
X31801Y-37357D01*
X31801Y-37328D01*
X31801Y-37186D02*
X31787Y-37214D01*
X31773Y-37229D01*
X31744Y-37243D01*
X31659Y-37243D01*
X31630Y-37229D01*
X31616Y-37214D01*
X31601Y-37186D01*
X31601Y-37143D01*
X31616Y-37114D01*
X31630Y-37100D01*
X31659Y-37086D01*
X31744Y-37086D01*
X31773Y-37100D01*
X31787Y-37114D01*
X31801Y-37143D01*
X31801Y-37186D01*
X31601Y-36958D02*
X31801Y-36958D01*
X31630Y-36958D02*
X31616Y-36943D01*
X31601Y-36915D01*
X31601Y-36872D01*
X31616Y-36843D01*
X31644Y-36829D01*
X31801Y-36829D01*
G54D11*
X26224Y-47171D02*
X25424Y-47171D01*
X25424Y-46943D01*
X25462Y-46885D01*
X25500Y-46857D01*
X25576Y-46828D01*
X25690Y-46828D01*
X25767Y-46857D01*
X25805Y-46885D01*
X25843Y-46943D01*
X25843Y-47171D01*
X26224Y-46571D02*
X25424Y-46571D01*
X26224Y-46314D02*
X25805Y-46314D01*
X25729Y-46343D01*
X25690Y-46400D01*
X25690Y-46485D01*
X25729Y-46543D01*
X25767Y-46571D01*
X26224Y-45942D02*
X26186Y-46000D01*
X26148Y-46028D01*
X26071Y-46057D01*
X25843Y-46057D01*
X25767Y-46028D01*
X25729Y-46000D01*
X25690Y-45942D01*
X25690Y-45857D01*
X25729Y-45800D01*
X25767Y-45771D01*
X25843Y-45742D01*
X26071Y-45742D01*
X26148Y-45771D01*
X26186Y-45800D01*
X26224Y-45857D01*
X26224Y-45942D01*
X25690Y-45571D02*
X25690Y-45342D01*
X25424Y-45485D02*
X26110Y-45485D01*
X26186Y-45457D01*
X26224Y-45399D01*
X26224Y-45342D01*
X26224Y-45056D02*
X26186Y-45114D01*
X26148Y-45142D01*
X26071Y-45171D01*
X25843Y-45171D01*
X25767Y-45142D01*
X25729Y-45114D01*
X25690Y-45056D01*
X25690Y-44971D01*
X25729Y-44914D01*
X25767Y-44885D01*
X25843Y-44856D01*
X26071Y-44856D01*
X26148Y-44885D01*
X26186Y-44914D01*
X26224Y-44971D01*
X26224Y-45056D01*
X25690Y-44342D02*
X26338Y-44342D01*
X26414Y-44371D01*
X26452Y-44399D01*
X26490Y-44456D01*
X26490Y-44542D01*
X26452Y-44599D01*
X26186Y-44342D02*
X26224Y-44399D01*
X26224Y-44513D01*
X26186Y-44571D01*
X26148Y-44599D01*
X26071Y-44628D01*
X25843Y-44628D01*
X25767Y-44599D01*
X25729Y-44571D01*
X25690Y-44513D01*
X25690Y-44399D01*
X25729Y-44342D01*
X26224Y-43799D02*
X25805Y-43799D01*
X25729Y-43828D01*
X25690Y-43885D01*
X25690Y-43999D01*
X25729Y-44056D01*
X26186Y-43799D02*
X26224Y-43856D01*
X26224Y-43999D01*
X26186Y-44056D01*
X26110Y-44085D01*
X26033Y-44085D01*
X25957Y-44056D01*
X25919Y-43999D01*
X25919Y-43856D01*
X25881Y-43799D01*
X25690Y-43599D02*
X25690Y-43370D01*
X25424Y-43513D02*
X26110Y-43513D01*
X26186Y-43485D01*
X26224Y-43427D01*
X26224Y-43370D01*
X26186Y-42942D02*
X26224Y-42999D01*
X26224Y-43113D01*
X26186Y-43170D01*
X26110Y-43199D01*
X25805Y-43199D01*
X25729Y-43170D01*
X25690Y-43113D01*
X25690Y-42999D01*
X25729Y-42942D01*
X25805Y-42913D01*
X25881Y-42913D01*
X25957Y-43199D01*
X26186Y-42228D02*
X26224Y-42142D01*
X26224Y-41999D01*
X26186Y-41942D01*
X26148Y-41913D01*
X26071Y-41885D01*
X25995Y-41885D01*
X25919Y-41913D01*
X25881Y-41942D01*
X25843Y-41999D01*
X25805Y-42113D01*
X25767Y-42171D01*
X25729Y-42199D01*
X25652Y-42228D01*
X25576Y-42228D01*
X25500Y-42199D01*
X25462Y-42171D01*
X25424Y-42113D01*
X25424Y-41971D01*
X25462Y-41885D01*
X26224Y-41628D02*
X25424Y-41628D01*
X26224Y-41371D02*
X25805Y-41371D01*
X25729Y-41400D01*
X25690Y-41457D01*
X25690Y-41542D01*
X25729Y-41600D01*
X25767Y-41628D01*
X26224Y-41085D02*
X25690Y-41085D01*
X25424Y-41085D02*
X25462Y-41114D01*
X25500Y-41085D01*
X25462Y-41057D01*
X25424Y-41085D01*
X25500Y-41085D01*
X26186Y-40571D02*
X26224Y-40628D01*
X26224Y-40742D01*
X26186Y-40799D01*
X26110Y-40828D01*
X25805Y-40828D01*
X25729Y-40799D01*
X25690Y-40742D01*
X25690Y-40628D01*
X25729Y-40571D01*
X25805Y-40542D01*
X25881Y-40542D01*
X25957Y-40828D01*
X26224Y-40199D02*
X26186Y-40257D01*
X26110Y-40285D01*
X25424Y-40285D01*
X26224Y-39714D02*
X25424Y-39714D01*
X26186Y-39714D02*
X26224Y-39771D01*
X26224Y-39885D01*
X26186Y-39943D01*
X26148Y-39971D01*
X26071Y-40000D01*
X25843Y-40000D01*
X25767Y-39971D01*
X25729Y-39943D01*
X25690Y-39885D01*
X25690Y-39771D01*
X25729Y-39714D01*
X25690Y-39028D02*
X26224Y-38885D01*
X25690Y-38743D01*
X26224Y-38200D02*
X26224Y-38543D01*
X26224Y-38371D02*
X25424Y-38371D01*
X25538Y-38428D01*
X25614Y-38486D01*
X25652Y-38543D01*
X26148Y-37943D02*
X26186Y-37915D01*
X26224Y-37943D01*
X26186Y-37972D01*
X26148Y-37943D01*
X26224Y-37943D01*
X25424Y-37543D02*
X25424Y-37486D01*
X25462Y-37429D01*
X25500Y-37400D01*
X25576Y-37371D01*
X25729Y-37343D01*
X25919Y-37343D01*
X26071Y-37371D01*
X26148Y-37400D01*
X26186Y-37429D01*
X26224Y-37486D01*
X26224Y-37543D01*
X26186Y-37600D01*
X26148Y-37629D01*
X26071Y-37657D01*
X25919Y-37686D01*
X25729Y-37686D01*
X25576Y-37657D01*
X25500Y-37629D01*
X25462Y-37600D01*
X25424Y-37543D01*
X26186Y-37058D02*
X26224Y-37058D01*
X26300Y-37086D01*
X26338Y-37115D01*
X26224Y-36343D02*
X25424Y-36343D01*
X25424Y-35943D02*
X25424Y-35829D01*
X25462Y-35771D01*
X25538Y-35714D01*
X25690Y-35686D01*
X25957Y-35686D01*
X26110Y-35714D01*
X26186Y-35771D01*
X26224Y-35829D01*
X26224Y-35943D01*
X26186Y-36000D01*
X26110Y-36057D01*
X25957Y-36086D01*
X25690Y-36086D01*
X25538Y-36057D01*
X25462Y-36000D01*
X25424Y-35943D01*
X26224Y-34628D02*
X25843Y-34828D01*
X26224Y-34971D02*
X25424Y-34971D01*
X25424Y-34743D01*
X25462Y-34685D01*
X25500Y-34657D01*
X25576Y-34628D01*
X25690Y-34628D01*
X25767Y-34657D01*
X25805Y-34685D01*
X25843Y-34743D01*
X25843Y-34971D01*
X26224Y-34285D02*
X26186Y-34343D01*
X26148Y-34371D01*
X26071Y-34400D01*
X25843Y-34400D01*
X25767Y-34371D01*
X25729Y-34343D01*
X25690Y-34285D01*
X25690Y-34200D01*
X25729Y-34143D01*
X25767Y-34114D01*
X25843Y-34085D01*
X26071Y-34085D01*
X26148Y-34114D01*
X26186Y-34143D01*
X26224Y-34200D01*
X26224Y-34285D01*
X26224Y-33571D02*
X25424Y-33571D01*
X26186Y-33571D02*
X26224Y-33628D01*
X26224Y-33742D01*
X26186Y-33800D01*
X26148Y-33828D01*
X26071Y-33857D01*
X25843Y-33857D01*
X25767Y-33828D01*
X25729Y-33800D01*
X25690Y-33742D01*
X25690Y-33628D01*
X25729Y-33571D01*
X26186Y-33057D02*
X26224Y-33114D01*
X26224Y-33228D01*
X26186Y-33285D01*
X26110Y-33314D01*
X25805Y-33314D01*
X25729Y-33285D01*
X25690Y-33228D01*
X25690Y-33114D01*
X25729Y-33057D01*
X25805Y-33028D01*
X25881Y-33028D01*
X25957Y-33314D01*
X26224Y-32685D02*
X26186Y-32743D01*
X26148Y-32771D01*
X26071Y-32800D01*
X25843Y-32800D01*
X25767Y-32771D01*
X25729Y-32743D01*
X25690Y-32685D01*
X25690Y-32600D01*
X25729Y-32543D01*
X25767Y-32514D01*
X25843Y-32485D01*
X26071Y-32485D01*
X26148Y-32514D01*
X26186Y-32543D01*
X26224Y-32600D01*
X26224Y-32685D01*
X26224Y-31771D02*
X25424Y-31771D01*
X25690Y-31485D02*
X26224Y-31485D01*
X25767Y-31485D02*
X25729Y-31457D01*
X25690Y-31399D01*
X25690Y-31314D01*
X25729Y-31257D01*
X25805Y-31228D01*
X26224Y-31228D01*
X26186Y-30685D02*
X26224Y-30742D01*
X26224Y-30856D01*
X26186Y-30914D01*
X26148Y-30942D01*
X26071Y-30971D01*
X25843Y-30971D01*
X25767Y-30942D01*
X25729Y-30914D01*
X25690Y-30856D01*
X25690Y-30742D01*
X25729Y-30685D01*
X26148Y-30428D02*
X26186Y-30400D01*
X26224Y-30428D01*
X26186Y-30457D01*
X26148Y-30428D01*
X26224Y-30428D01*
G54D12*
X27165Y-31177D02*
X27165Y-31377D01*
X27165Y-34177D02*
X27165Y-33977D01*
X27165Y-33977D02*
X27565Y-33977D01*
X27565Y-33977D02*
X27565Y-31377D01*
X27565Y-31377D02*
X26765Y-31377D01*
X26765Y-31377D02*
X26765Y-33977D01*
X26765Y-33977D02*
X27165Y-33977D01*
X27365Y-31377D02*
X27565Y-31577D01*
X27165Y-44807D02*
X27165Y-44607D01*
X27165Y-41807D02*
X27165Y-42007D01*
X27165Y-42007D02*
X26765Y-42007D01*
X26765Y-42007D02*
X26765Y-44607D01*
X26765Y-44607D02*
X27565Y-44607D01*
X27565Y-44607D02*
X27565Y-42007D01*
X27565Y-42007D02*
X27165Y-42007D01*
X26965Y-44607D02*
X26765Y-44407D01*
X31890Y-31177D02*
X31890Y-31377D01*
X31890Y-34177D02*
X31890Y-33977D01*
X31890Y-33977D02*
X32290Y-33977D01*
X32290Y-33977D02*
X32290Y-31377D01*
X32290Y-31377D02*
X31490Y-31377D01*
X31490Y-31377D02*
X31490Y-33977D01*
X31490Y-33977D02*
X31890Y-33977D01*
X32090Y-31377D02*
X32290Y-31577D01*
X32087Y-41807D02*
X32087Y-42007D01*
X32087Y-44807D02*
X32087Y-44607D01*
X32087Y-44607D02*
X32487Y-44607D01*
X32487Y-44607D02*
X32487Y-42007D01*
X32487Y-42007D02*
X31687Y-42007D01*
X31687Y-42007D02*
X31687Y-44607D01*
X31687Y-44607D02*
X32087Y-44607D01*
X32287Y-42007D02*
X32487Y-42207D01*
X34131Y-37008D02*
X34331Y-37008D01*
X37131Y-37008D02*
X36931Y-37008D01*
X36931Y-37008D02*
X36931Y-36608D01*
X36931Y-36608D02*
X34331Y-36608D01*
X34331Y-36608D02*
X34331Y-37408D01*
X34331Y-37408D02*
X36931Y-37408D01*
X36931Y-37408D02*
X36931Y-37008D01*
X34331Y-36808D02*
X34531Y-36608D01*
X37131Y-39173D02*
X36931Y-39173D01*
X34131Y-39173D02*
X34331Y-39173D01*
X34331Y-39173D02*
X34331Y-39573D01*
X34331Y-39573D02*
X36931Y-39573D01*
X36931Y-39573D02*
X36931Y-38773D01*
X36931Y-38773D02*
X34331Y-38773D01*
X34331Y-38773D02*
X34331Y-39173D01*
X36931Y-39373D02*
X36731Y-39573D01*
X39052Y-37008D02*
X39252Y-37008D01*
X42052Y-37008D02*
X41852Y-37008D01*
X41852Y-37008D02*
X41852Y-36608D01*
X41852Y-36608D02*
X39252Y-36608D01*
X39252Y-36608D02*
X39252Y-37408D01*
X39252Y-37408D02*
X41852Y-37408D01*
X41852Y-37408D02*
X41852Y-37008D01*
X39252Y-36808D02*
X39452Y-36608D01*
X39052Y-39173D02*
X39252Y-39173D01*
X42052Y-39173D02*
X41852Y-39173D01*
X41852Y-39173D02*
X41852Y-38773D01*
X41852Y-38773D02*
X39252Y-38773D01*
X39252Y-38773D02*
X39252Y-39573D01*
X39252Y-39573D02*
X41852Y-39573D01*
X41852Y-39573D02*
X41852Y-39173D01*
X39252Y-38973D02*
X39452Y-38773D01*
G54D13*
X30562Y-37500D02*
X30561Y-37483D01*
X30559Y-37466D01*
X30555Y-37450D01*
X30550Y-37433D01*
X30543Y-37418D01*
X30535Y-37403D01*
X30526Y-37388D01*
X30516Y-37375D01*
X30504Y-37362D01*
X30491Y-37350D01*
X30478Y-37340D01*
X30464Y-37331D01*
X30448Y-37323D01*
X30433Y-37316D01*
X30416Y-37311D01*
X30400Y-37307D01*
X30383Y-37305D01*
X30366Y-37304D01*
X28398Y-37303D02*
X28381Y-37304D01*
X28364Y-37306D01*
X28348Y-37310D01*
X28331Y-37315D01*
X28315Y-37322D01*
X28300Y-37330D01*
X28286Y-37339D01*
X28272Y-37350D01*
X28259Y-37361D01*
X28248Y-37374D01*
X28237Y-37388D01*
X28228Y-37402D01*
X28220Y-37417D01*
X28213Y-37433D01*
X28208Y-37450D01*
X28204Y-37466D01*
X28202Y-37483D01*
X28201Y-37500D01*
X28202Y-38682D02*
X28203Y-38699D01*
X28205Y-38716D01*
X28209Y-38732D01*
X28214Y-38749D01*
X28221Y-38764D01*
X28229Y-38779D01*
X28238Y-38794D01*
X28248Y-38807D01*
X28260Y-38820D01*
X28273Y-38832D01*
X28286Y-38842D01*
X28301Y-38851D01*
X28316Y-38859D01*
X28331Y-38866D01*
X28348Y-38871D01*
X28364Y-38875D01*
X28381Y-38877D01*
X28398Y-38878D01*
X30366Y-38879D02*
X30383Y-38878D01*
X30400Y-38876D01*
X30416Y-38872D01*
X30433Y-38867D01*
X30449Y-38860D01*
X30464Y-38852D01*
X30478Y-38843D01*
X30492Y-38832D01*
X30505Y-38821D01*
X30516Y-38808D01*
X30527Y-38794D01*
X30536Y-38780D01*
X30544Y-38765D01*
X30551Y-38749D01*
X30556Y-38732D01*
X30560Y-38716D01*
X30562Y-38699D01*
X30563Y-38682D01*
X30563Y-38682D02*
X30563Y-37500D01*
X28201Y-38682D02*
X28201Y-37500D01*
X29382Y-37304D02*
X30366Y-37304D01*
X29382Y-37304D02*
X28398Y-37304D01*
X29382Y-38878D02*
X30366Y-38878D01*
X29382Y-38878D02*
X28398Y-38878D01*
G54D14*
X30102Y-33325D02*
X30102Y-32325D01*
G54D10*
X29022Y-32441D02*
X28990Y-32483D01*
X28962Y-32527D01*
X28938Y-32574D01*
X28918Y-32622D01*
X28902Y-32672D01*
X28891Y-32723D01*
X28885Y-32775D01*
X28882Y-32825D01*
X28883Y-32825D02*
X28886Y-32877D01*
X28893Y-32929D01*
X28904Y-32980D01*
X28920Y-33029D01*
X28940Y-33078D01*
X28964Y-33124D01*
X28992Y-33168D01*
X29024Y-33210D01*
X29035Y-33222D01*
X30081Y-32825D02*
X30078Y-32773D01*
X30071Y-32721D01*
X30060Y-32670D01*
X30044Y-32621D01*
X30024Y-32572D01*
X30000Y-32526D01*
X29972Y-32482D01*
X29940Y-32440D01*
X29936Y-32436D01*
X29942Y-33209D02*
X29974Y-33167D01*
X30002Y-33123D01*
X30026Y-33076D01*
X30046Y-33028D01*
X30062Y-32978D01*
X30073Y-32927D01*
X30079Y-32875D01*
X30082Y-32825D01*
X29969Y-32476D02*
X29937Y-32435D01*
X29901Y-32397D01*
X29862Y-32362D01*
X29820Y-32330D01*
X29776Y-32303D01*
X29729Y-32279D01*
X29681Y-32260D01*
X29631Y-32244D01*
X29579Y-32234D01*
X29528Y-32227D01*
X29482Y-32225D01*
X29482Y-32225D02*
X29430Y-32228D01*
X29378Y-32235D01*
X29327Y-32246D01*
X29277Y-32262D01*
X29229Y-32282D01*
X29183Y-32306D01*
X29138Y-32334D01*
X29097Y-32366D01*
X29058Y-32401D01*
X29023Y-32440D01*
X29003Y-32465D01*
X29482Y-33424D02*
X29534Y-33421D01*
X29586Y-33414D01*
X29637Y-33403D01*
X29686Y-33387D01*
X29735Y-33367D01*
X29781Y-33343D01*
X29825Y-33315D01*
X29867Y-33283D01*
X29905Y-33248D01*
X29940Y-33210D01*
X29954Y-33192D01*
X29009Y-33193D02*
X29043Y-33233D01*
X29080Y-33270D01*
X29121Y-33303D01*
X29164Y-33333D01*
X29209Y-33359D01*
X29257Y-33380D01*
X29306Y-33398D01*
X29357Y-33411D01*
X29408Y-33420D01*
X29461Y-33424D01*
X29482Y-33425D01*
X29482Y-32575D02*
X29461Y-32576D01*
X29439Y-32579D01*
X29418Y-32584D01*
X29397Y-32591D01*
X29377Y-32599D01*
X29358Y-32609D01*
X29339Y-32621D01*
X29322Y-32634D01*
X29306Y-32649D01*
X29291Y-32665D01*
X29278Y-32682D01*
X29266Y-32701D01*
X29256Y-32720D01*
X29248Y-32740D01*
X29241Y-32761D01*
X29236Y-32782D01*
X29233Y-32804D01*
X29232Y-32825D01*
X29482Y-32425D02*
X29448Y-32427D01*
X29413Y-32432D01*
X29379Y-32439D01*
X29346Y-32450D01*
X29313Y-32463D01*
X29283Y-32479D01*
X29253Y-32498D01*
X29225Y-32519D01*
X29200Y-32543D01*
X29176Y-32568D01*
X29155Y-32596D01*
X29136Y-32626D01*
X29120Y-32656D01*
X29107Y-32689D01*
X29096Y-32722D01*
X29089Y-32756D01*
X29084Y-32791D01*
X29082Y-32825D01*
X29482Y-33075D02*
X29503Y-33074D01*
X29525Y-33071D01*
X29546Y-33066D01*
X29567Y-33059D01*
X29587Y-33051D01*
X29607Y-33041D01*
X29625Y-33029D01*
X29642Y-33016D01*
X29658Y-33001D01*
X29673Y-32985D01*
X29686Y-32968D01*
X29698Y-32949D01*
X29708Y-32930D01*
X29716Y-32910D01*
X29723Y-32889D01*
X29728Y-32868D01*
X29731Y-32846D01*
X29732Y-32825D01*
X29482Y-33225D02*
X29516Y-33223D01*
X29551Y-33218D01*
X29585Y-33211D01*
X29618Y-33200D01*
X29651Y-33187D01*
X29682Y-33171D01*
X29711Y-33152D01*
X29739Y-33131D01*
X29764Y-33107D01*
X29788Y-33082D01*
X29809Y-33054D01*
X29828Y-33024D01*
X29844Y-32994D01*
X29857Y-32961D01*
X29868Y-32928D01*
X29875Y-32894D01*
X29880Y-32859D01*
X29882Y-32825D01*
G54D14*
X30095Y-32312D02*
X30048Y-32261D01*
X29997Y-32214D01*
X29942Y-32171D01*
X29883Y-32133D01*
X29821Y-32101D01*
X29756Y-32074D01*
X29690Y-32053D01*
X29622Y-32038D01*
X29553Y-32029D01*
X29483Y-32026D01*
X29482Y-32025D01*
X29482Y-32026D02*
X29413Y-32030D01*
X29344Y-32039D01*
X29276Y-32054D01*
X29209Y-32075D01*
X29145Y-32101D01*
X29083Y-32134D01*
X29024Y-32171D01*
X28969Y-32213D01*
X28918Y-32261D01*
X28870Y-32312D01*
X28828Y-32367D01*
X28791Y-32426D01*
X28778Y-32449D01*
X29483Y-33622D02*
X29552Y-33619D01*
X29621Y-33610D01*
X29689Y-33595D01*
X29756Y-33574D01*
X29820Y-33547D01*
X29882Y-33515D01*
X29940Y-33477D01*
X29996Y-33435D01*
X30047Y-33388D01*
X30091Y-33340D01*
X28788Y-33222D02*
X28826Y-33281D01*
X28868Y-33337D01*
X28915Y-33388D01*
X28966Y-33436D01*
X29021Y-33478D01*
X29080Y-33516D01*
X29142Y-33548D01*
X29206Y-33575D01*
X29273Y-33597D01*
X29341Y-33612D01*
X29410Y-33621D01*
X29480Y-33624D01*
X29482Y-33625D01*
X28778Y-32446D02*
X28748Y-32509D01*
X28723Y-32574D01*
X28704Y-32641D01*
X28691Y-32710D01*
X28684Y-32779D01*
X28682Y-32825D01*
X28683Y-32825D02*
X28687Y-32894D01*
X28696Y-32963D01*
X28711Y-33031D01*
X28732Y-33098D01*
X28758Y-33162D01*
X28791Y-33224D01*
X28802Y-33243D01*
X30102Y-43856D02*
X30102Y-42856D01*
G54D10*
X29022Y-42972D02*
X28990Y-43014D01*
X28962Y-43058D01*
X28938Y-43105D01*
X28918Y-43153D01*
X28902Y-43203D01*
X28891Y-43254D01*
X28885Y-43306D01*
X28882Y-43356D01*
X28883Y-43356D02*
X28886Y-43408D01*
X28893Y-43460D01*
X28904Y-43511D01*
X28920Y-43560D01*
X28940Y-43609D01*
X28964Y-43655D01*
X28992Y-43699D01*
X29024Y-43741D01*
X29035Y-43753D01*
X30081Y-43356D02*
X30078Y-43304D01*
X30071Y-43252D01*
X30060Y-43201D01*
X30044Y-43152D01*
X30024Y-43103D01*
X30000Y-43057D01*
X29972Y-43013D01*
X29940Y-42971D01*
X29936Y-42967D01*
X29942Y-43740D02*
X29974Y-43698D01*
X30002Y-43654D01*
X30026Y-43607D01*
X30046Y-43559D01*
X30062Y-43509D01*
X30073Y-43458D01*
X30079Y-43406D01*
X30082Y-43356D01*
X29969Y-43007D02*
X29937Y-42966D01*
X29901Y-42928D01*
X29862Y-42893D01*
X29820Y-42861D01*
X29776Y-42834D01*
X29729Y-42810D01*
X29681Y-42791D01*
X29631Y-42775D01*
X29579Y-42765D01*
X29528Y-42758D01*
X29482Y-42756D01*
X29482Y-42756D02*
X29430Y-42759D01*
X29378Y-42766D01*
X29327Y-42777D01*
X29277Y-42793D01*
X29229Y-42813D01*
X29183Y-42837D01*
X29138Y-42865D01*
X29097Y-42897D01*
X29058Y-42932D01*
X29023Y-42971D01*
X29003Y-42996D01*
X29482Y-43955D02*
X29534Y-43952D01*
X29586Y-43945D01*
X29637Y-43934D01*
X29686Y-43918D01*
X29735Y-43898D01*
X29781Y-43874D01*
X29825Y-43846D01*
X29867Y-43814D01*
X29905Y-43779D01*
X29940Y-43741D01*
X29954Y-43723D01*
X29009Y-43724D02*
X29043Y-43764D01*
X29080Y-43801D01*
X29121Y-43834D01*
X29164Y-43864D01*
X29209Y-43890D01*
X29257Y-43911D01*
X29306Y-43929D01*
X29357Y-43942D01*
X29408Y-43951D01*
X29461Y-43955D01*
X29482Y-43956D01*
X29482Y-43106D02*
X29461Y-43107D01*
X29439Y-43110D01*
X29418Y-43115D01*
X29397Y-43122D01*
X29377Y-43130D01*
X29358Y-43140D01*
X29339Y-43152D01*
X29322Y-43165D01*
X29306Y-43180D01*
X29291Y-43196D01*
X29278Y-43213D01*
X29266Y-43232D01*
X29256Y-43251D01*
X29248Y-43271D01*
X29241Y-43292D01*
X29236Y-43313D01*
X29233Y-43335D01*
X29232Y-43356D01*
X29482Y-42956D02*
X29448Y-42958D01*
X29413Y-42963D01*
X29379Y-42970D01*
X29346Y-42981D01*
X29313Y-42994D01*
X29283Y-43010D01*
X29253Y-43029D01*
X29225Y-43050D01*
X29200Y-43074D01*
X29176Y-43099D01*
X29155Y-43127D01*
X29136Y-43157D01*
X29120Y-43187D01*
X29107Y-43220D01*
X29096Y-43253D01*
X29089Y-43287D01*
X29084Y-43322D01*
X29082Y-43356D01*
X29482Y-43606D02*
X29503Y-43605D01*
X29525Y-43602D01*
X29546Y-43597D01*
X29567Y-43590D01*
X29587Y-43582D01*
X29607Y-43572D01*
X29625Y-43560D01*
X29642Y-43547D01*
X29658Y-43532D01*
X29673Y-43516D01*
X29686Y-43499D01*
X29698Y-43480D01*
X29708Y-43461D01*
X29716Y-43441D01*
X29723Y-43420D01*
X29728Y-43399D01*
X29731Y-43377D01*
X29732Y-43356D01*
X29482Y-43756D02*
X29516Y-43754D01*
X29551Y-43749D01*
X29585Y-43742D01*
X29618Y-43731D01*
X29651Y-43718D01*
X29682Y-43702D01*
X29711Y-43683D01*
X29739Y-43662D01*
X29764Y-43638D01*
X29788Y-43613D01*
X29809Y-43585D01*
X29828Y-43555D01*
X29844Y-43525D01*
X29857Y-43492D01*
X29868Y-43459D01*
X29875Y-43425D01*
X29880Y-43390D01*
X29882Y-43356D01*
G54D14*
X30095Y-42843D02*
X30048Y-42792D01*
X29997Y-42745D01*
X29942Y-42702D01*
X29883Y-42664D01*
X29821Y-42632D01*
X29756Y-42605D01*
X29690Y-42584D01*
X29622Y-42569D01*
X29553Y-42560D01*
X29483Y-42557D01*
X29482Y-42556D01*
X29482Y-42557D02*
X29413Y-42561D01*
X29344Y-42570D01*
X29276Y-42585D01*
X29209Y-42606D01*
X29145Y-42632D01*
X29083Y-42665D01*
X29024Y-42702D01*
X28969Y-42744D01*
X28918Y-42792D01*
X28870Y-42843D01*
X28828Y-42898D01*
X28791Y-42957D01*
X28778Y-42980D01*
X29483Y-44153D02*
X29552Y-44150D01*
X29621Y-44141D01*
X29689Y-44126D01*
X29756Y-44105D01*
X29820Y-44078D01*
X29882Y-44046D01*
X29940Y-44008D01*
X29996Y-43966D01*
X30047Y-43919D01*
X30091Y-43871D01*
X28788Y-43753D02*
X28826Y-43812D01*
X28868Y-43868D01*
X28915Y-43919D01*
X28966Y-43967D01*
X29021Y-44009D01*
X29080Y-44047D01*
X29142Y-44079D01*
X29206Y-44106D01*
X29273Y-44128D01*
X29341Y-44143D01*
X29410Y-44152D01*
X29480Y-44155D01*
X29482Y-44156D01*
X28778Y-42977D02*
X28748Y-43040D01*
X28723Y-43105D01*
X28704Y-43172D01*
X28691Y-43241D01*
X28684Y-43310D01*
X28682Y-43356D01*
X28683Y-43356D02*
X28687Y-43425D01*
X28696Y-43494D01*
X28711Y-43562D01*
X28732Y-43629D01*
X28758Y-43693D01*
X28791Y-43755D01*
X28802Y-43774D01*
G54D13*
X42722Y-32825D02*
X42722Y-30125D01*
X42722Y-30125D02*
X34122Y-30125D01*
X34122Y-30125D02*
X34122Y-35525D01*
X34122Y-35525D02*
X42722Y-35525D01*
X42722Y-35525D02*
X42722Y-32825D01*
X42722Y-43356D02*
X42722Y-40656D01*
X42722Y-40656D02*
X34122Y-40656D01*
X34122Y-40656D02*
X34122Y-46056D01*
X34122Y-46056D02*
X42722Y-46056D01*
X42722Y-46056D02*
X42722Y-43356D01*
G54D11*
X28402Y-30012D02*
X30382Y-30012D01*
X30382Y-30012D02*
X30382Y-31012D01*
X30382Y-31012D02*
X28382Y-31012D01*
X28382Y-31012D02*
X28382Y-30012D01*
X28382Y-30262D02*
X28632Y-30012D01*
X28402Y-45563D02*
X30382Y-45563D01*
X30382Y-45563D02*
X30382Y-46563D01*
X30382Y-46563D02*
X28382Y-46563D01*
X28382Y-46563D02*
X28382Y-45563D01*
X28382Y-45813D02*
X28632Y-45563D01*
G54D13*
X24932Y-27622D02*
X42732Y-27622D01*
X42732Y-48622D02*
X42732Y-27622D01*
X24932Y-48622D02*
X42732Y-48622D01*
X24932Y-27622D02*
X24932Y-48622D01*
G54D12*
X27388Y-30004D02*
X27126Y-30171D01*
X27388Y-30290D02*
X26838Y-30290D01*
X26838Y-30099D01*
X26864Y-30052D01*
X26890Y-30028D01*
X26942Y-30004D01*
X27021Y-30004D01*
X27073Y-30028D01*
X27100Y-30052D01*
X27126Y-30099D01*
X27126Y-30290D01*
X27388Y-29528D02*
X27388Y-29814D01*
X27388Y-29671D02*
X26838Y-29671D01*
X26916Y-29719D01*
X26969Y-29766D01*
X26995Y-29814D01*
X26989Y-33296D02*
X26963Y-33272D01*
X26937Y-33224D01*
X26937Y-33105D01*
X26963Y-33058D01*
X26989Y-33034D01*
X27041Y-33010D01*
X27094Y-33010D01*
X27172Y-33034D01*
X27487Y-33320D01*
X27487Y-33010D01*
X26989Y-32820D02*
X26963Y-32796D01*
X26937Y-32748D01*
X26937Y-32629D01*
X26963Y-32582D01*
X26989Y-32558D01*
X27041Y-32534D01*
X27094Y-32534D01*
X27172Y-32558D01*
X27487Y-32844D01*
X27487Y-32534D01*
X26937Y-32225D02*
X26937Y-32177D01*
X26963Y-32129D01*
X26989Y-32106D01*
X27041Y-32082D01*
X27146Y-32058D01*
X27277Y-32058D01*
X27382Y-32082D01*
X27434Y-32106D01*
X27460Y-32129D01*
X27487Y-32177D01*
X27487Y-32225D01*
X27460Y-32272D01*
X27434Y-32296D01*
X27382Y-32320D01*
X27277Y-32344D01*
X27146Y-32344D01*
X27041Y-32320D01*
X26989Y-32296D01*
X26963Y-32272D01*
X26937Y-32225D01*
X27388Y-40634D02*
X27126Y-40801D01*
X27388Y-40920D02*
X26838Y-40920D01*
X26838Y-40729D01*
X26864Y-40682D01*
X26890Y-40658D01*
X26942Y-40634D01*
X27021Y-40634D01*
X27073Y-40658D01*
X27100Y-40682D01*
X27126Y-40729D01*
X27126Y-40920D01*
X26890Y-40444D02*
X26864Y-40420D01*
X26838Y-40372D01*
X26838Y-40253D01*
X26864Y-40206D01*
X26890Y-40182D01*
X26942Y-40158D01*
X26995Y-40158D01*
X27073Y-40182D01*
X27388Y-40468D01*
X27388Y-40158D01*
X26989Y-43926D02*
X26963Y-43902D01*
X26937Y-43854D01*
X26937Y-43735D01*
X26963Y-43688D01*
X26989Y-43664D01*
X27041Y-43640D01*
X27094Y-43640D01*
X27172Y-43664D01*
X27487Y-43950D01*
X27487Y-43640D01*
X26989Y-43450D02*
X26963Y-43426D01*
X26937Y-43378D01*
X26937Y-43259D01*
X26963Y-43212D01*
X26989Y-43188D01*
X27041Y-43164D01*
X27094Y-43164D01*
X27172Y-43188D01*
X27487Y-43474D01*
X27487Y-43164D01*
X26937Y-42855D02*
X26937Y-42807D01*
X26963Y-42759D01*
X26989Y-42736D01*
X27041Y-42712D01*
X27146Y-42688D01*
X27277Y-42688D01*
X27382Y-42712D01*
X27434Y-42736D01*
X27460Y-42759D01*
X27487Y-42807D01*
X27487Y-42855D01*
X27460Y-42902D01*
X27434Y-42926D01*
X27382Y-42950D01*
X27277Y-42974D01*
X27146Y-42974D01*
X27041Y-42950D01*
X26989Y-42926D01*
X26963Y-42902D01*
X26937Y-42855D01*
X32113Y-30201D02*
X31851Y-30368D01*
X32113Y-30487D02*
X31563Y-30487D01*
X31563Y-30296D01*
X31589Y-30249D01*
X31615Y-30225D01*
X31667Y-30201D01*
X31746Y-30201D01*
X31798Y-30225D01*
X31825Y-30249D01*
X31851Y-30296D01*
X31851Y-30487D01*
X31563Y-30035D02*
X31563Y-29725D01*
X31772Y-29892D01*
X31772Y-29820D01*
X31798Y-29773D01*
X31825Y-29749D01*
X31877Y-29725D01*
X32008Y-29725D01*
X32060Y-29749D01*
X32086Y-29773D01*
X32113Y-29820D01*
X32113Y-29963D01*
X32086Y-30011D01*
X32060Y-30035D01*
X32310Y-40831D02*
X32048Y-40998D01*
X32310Y-41117D02*
X31760Y-41117D01*
X31760Y-40926D01*
X31786Y-40879D01*
X31812Y-40855D01*
X31864Y-40831D01*
X31943Y-40831D01*
X31995Y-40855D01*
X32022Y-40879D01*
X32048Y-40926D01*
X32048Y-41117D01*
X31943Y-40403D02*
X32310Y-40403D01*
X31733Y-40522D02*
X32126Y-40641D01*
X32126Y-40331D01*
X33689Y-37091D02*
X33427Y-37258D01*
X33689Y-37377D02*
X33139Y-37377D01*
X33139Y-37186D01*
X33165Y-37139D01*
X33191Y-37115D01*
X33243Y-37091D01*
X33322Y-37091D01*
X33374Y-37115D01*
X33401Y-37139D01*
X33427Y-37186D01*
X33427Y-37377D01*
X33139Y-36639D02*
X33139Y-36877D01*
X33401Y-36901D01*
X33374Y-36877D01*
X33348Y-36829D01*
X33348Y-36710D01*
X33374Y-36663D01*
X33401Y-36639D01*
X33453Y-36615D01*
X33584Y-36615D01*
X33636Y-36639D01*
X33662Y-36663D01*
X33689Y-36710D01*
X33689Y-36829D01*
X33662Y-36877D01*
X33636Y-36901D01*
X35500Y-36731D02*
X35262Y-36731D01*
X35238Y-36993D01*
X35262Y-36966D01*
X35310Y-36940D01*
X35429Y-36940D01*
X35476Y-36966D01*
X35500Y-36993D01*
X35524Y-37045D01*
X35524Y-37176D01*
X35500Y-37228D01*
X35476Y-37254D01*
X35429Y-37281D01*
X35310Y-37281D01*
X35262Y-37254D01*
X35238Y-37228D01*
X35738Y-37281D02*
X35738Y-36731D01*
X36024Y-37281D02*
X35809Y-36966D01*
X36024Y-36731D02*
X35738Y-37045D01*
X33689Y-39256D02*
X33427Y-39423D01*
X33689Y-39542D02*
X33139Y-39542D01*
X33139Y-39351D01*
X33165Y-39304D01*
X33191Y-39280D01*
X33243Y-39256D01*
X33322Y-39256D01*
X33374Y-39280D01*
X33401Y-39304D01*
X33427Y-39351D01*
X33427Y-39542D01*
X33139Y-38828D02*
X33139Y-38923D01*
X33165Y-38971D01*
X33191Y-38994D01*
X33270Y-39042D01*
X33374Y-39066D01*
X33584Y-39066D01*
X33636Y-39042D01*
X33662Y-39018D01*
X33689Y-38971D01*
X33689Y-38875D01*
X33662Y-38828D01*
X33636Y-38804D01*
X33584Y-38780D01*
X33453Y-38780D01*
X33401Y-38804D01*
X33374Y-38828D01*
X33348Y-38875D01*
X33348Y-38971D01*
X33374Y-39018D01*
X33401Y-39042D01*
X33453Y-39066D01*
X35500Y-38846D02*
X35262Y-38846D01*
X35238Y-39108D01*
X35262Y-39081D01*
X35310Y-39055D01*
X35429Y-39055D01*
X35476Y-39081D01*
X35500Y-39108D01*
X35524Y-39160D01*
X35524Y-39291D01*
X35500Y-39343D01*
X35476Y-39369D01*
X35429Y-39396D01*
X35310Y-39396D01*
X35262Y-39369D01*
X35238Y-39343D01*
X35738Y-39396D02*
X35738Y-38846D01*
X36024Y-39396D02*
X35809Y-39081D01*
X36024Y-38846D02*
X35738Y-39160D01*
X38610Y-37091D02*
X38348Y-37258D01*
X38610Y-37377D02*
X38060Y-37377D01*
X38060Y-37186D01*
X38086Y-37139D01*
X38112Y-37115D01*
X38164Y-37091D01*
X38243Y-37091D01*
X38295Y-37115D01*
X38322Y-37139D01*
X38348Y-37186D01*
X38348Y-37377D01*
X38060Y-36925D02*
X38060Y-36591D01*
X38610Y-36806D01*
X40219Y-37281D02*
X39933Y-37281D01*
X40076Y-37281D02*
X40076Y-36731D01*
X40028Y-36809D01*
X39981Y-36862D01*
X39933Y-36888D01*
X40671Y-36731D02*
X40433Y-36731D01*
X40409Y-36993D01*
X40433Y-36966D01*
X40481Y-36940D01*
X40600Y-36940D01*
X40647Y-36966D01*
X40671Y-36993D01*
X40695Y-37045D01*
X40695Y-37176D01*
X40671Y-37228D01*
X40647Y-37254D01*
X40600Y-37281D01*
X40481Y-37281D01*
X40433Y-37254D01*
X40409Y-37228D01*
X41004Y-36731D02*
X41052Y-36731D01*
X41100Y-36757D01*
X41123Y-36783D01*
X41147Y-36835D01*
X41171Y-36940D01*
X41171Y-37071D01*
X41147Y-37176D01*
X41123Y-37228D01*
X41100Y-37254D01*
X41052Y-37281D01*
X41004Y-37281D01*
X40957Y-37254D01*
X40933Y-37228D01*
X40909Y-37176D01*
X40885Y-37071D01*
X40885Y-36940D01*
X40909Y-36835D01*
X40933Y-36783D01*
X40957Y-36757D01*
X41004Y-36731D01*
X38610Y-39256D02*
X38348Y-39423D01*
X38610Y-39542D02*
X38060Y-39542D01*
X38060Y-39351D01*
X38086Y-39304D01*
X38112Y-39280D01*
X38164Y-39256D01*
X38243Y-39256D01*
X38295Y-39280D01*
X38322Y-39304D01*
X38348Y-39351D01*
X38348Y-39542D01*
X38295Y-38971D02*
X38269Y-39018D01*
X38243Y-39042D01*
X38191Y-39066D01*
X38164Y-39066D01*
X38112Y-39042D01*
X38086Y-39018D01*
X38060Y-38971D01*
X38060Y-38875D01*
X38086Y-38828D01*
X38112Y-38804D01*
X38164Y-38780D01*
X38191Y-38780D01*
X38243Y-38804D01*
X38269Y-38828D01*
X38295Y-38875D01*
X38295Y-38971D01*
X38322Y-39018D01*
X38348Y-39042D01*
X38400Y-39066D01*
X38505Y-39066D01*
X38557Y-39042D01*
X38583Y-39018D01*
X38610Y-38971D01*
X38610Y-38875D01*
X38583Y-38828D01*
X38557Y-38804D01*
X38505Y-38780D01*
X38400Y-38780D01*
X38348Y-38804D01*
X38322Y-38828D01*
X38295Y-38875D01*
X40219Y-39494D02*
X39933Y-39494D01*
X40076Y-39494D02*
X40076Y-38944D01*
X40028Y-39022D01*
X39981Y-39075D01*
X39933Y-39101D01*
X40671Y-38944D02*
X40433Y-38944D01*
X40409Y-39206D01*
X40433Y-39179D01*
X40481Y-39153D01*
X40600Y-39153D01*
X40647Y-39179D01*
X40671Y-39206D01*
X40695Y-39258D01*
X40695Y-39389D01*
X40671Y-39441D01*
X40647Y-39467D01*
X40600Y-39494D01*
X40481Y-39494D01*
X40433Y-39467D01*
X40409Y-39441D01*
X41004Y-38944D02*
X41052Y-38944D01*
X41100Y-38970D01*
X41123Y-38996D01*
X41147Y-39048D01*
X41171Y-39153D01*
X41171Y-39284D01*
X41147Y-39389D01*
X41123Y-39441D01*
X41100Y-39467D01*
X41052Y-39494D01*
X41004Y-39494D01*
X40957Y-39467D01*
X40933Y-39441D01*
X40909Y-39389D01*
X40885Y-39284D01*
X40885Y-39153D01*
X40909Y-39048D01*
X40933Y-38996D01*
X40957Y-38970D01*
X41004Y-38944D01*
G54D15*
X27995Y-38517D02*
X28013Y-38461D01*
X28013Y-38367D01*
X27995Y-38329D01*
X27976Y-38311D01*
X27938Y-38292D01*
X27901Y-38292D01*
X27863Y-38311D01*
X27845Y-38329D01*
X27826Y-38367D01*
X27807Y-38442D01*
X27788Y-38479D01*
X27770Y-38498D01*
X27732Y-38517D01*
X27695Y-38517D01*
X27657Y-38498D01*
X27638Y-38479D01*
X27619Y-38442D01*
X27619Y-38348D01*
X27638Y-38292D01*
X27619Y-38161D02*
X28013Y-38067D01*
X27732Y-37992D01*
X28013Y-37917D01*
X27619Y-37823D01*
X28013Y-37467D02*
X28013Y-37692D01*
X28013Y-37579D02*
X27619Y-37579D01*
X27676Y-37617D01*
X27713Y-37654D01*
X27732Y-37692D01*
G54D16*
X30830Y-33096D02*
X30530Y-33096D01*
X30530Y-33024D01*
X30545Y-32981D01*
X30573Y-32953D01*
X30602Y-32938D01*
X30659Y-32924D01*
X30702Y-32924D01*
X30759Y-32938D01*
X30788Y-32953D01*
X30816Y-32981D01*
X30830Y-33024D01*
X30830Y-33096D01*
X30830Y-32638D02*
X30830Y-32810D01*
X30830Y-32724D02*
X30530Y-32724D01*
X30573Y-32753D01*
X30602Y-32781D01*
X30616Y-32810D01*
X30830Y-43529D02*
X30530Y-43529D01*
X30530Y-43457D01*
X30545Y-43414D01*
X30573Y-43386D01*
X30602Y-43371D01*
X30659Y-43357D01*
X30702Y-43357D01*
X30759Y-43371D01*
X30788Y-43386D01*
X30816Y-43414D01*
X30830Y-43457D01*
X30830Y-43529D01*
X30559Y-43243D02*
X30545Y-43229D01*
X30530Y-43200D01*
X30530Y-43129D01*
X30545Y-43100D01*
X30559Y-43086D01*
X30588Y-43071D01*
X30616Y-43071D01*
X30659Y-43086D01*
X30830Y-43257D01*
X30830Y-43071D01*
G54D11*
X33511Y-35502D02*
X32911Y-35502D01*
X32911Y-35274D01*
X32939Y-35216D01*
X32968Y-35188D01*
X33025Y-35159D01*
X33111Y-35159D01*
X33168Y-35188D01*
X33197Y-35216D01*
X33225Y-35274D01*
X33225Y-35502D01*
X33511Y-34902D02*
X32911Y-34902D01*
X33511Y-34645D02*
X33197Y-34645D01*
X33139Y-34674D01*
X33111Y-34731D01*
X33111Y-34816D01*
X33139Y-34874D01*
X33168Y-34902D01*
X33511Y-34273D02*
X33482Y-34331D01*
X33454Y-34359D01*
X33397Y-34388D01*
X33225Y-34388D01*
X33168Y-34359D01*
X33139Y-34331D01*
X33111Y-34273D01*
X33111Y-34188D01*
X33139Y-34131D01*
X33168Y-34102D01*
X33225Y-34073D01*
X33397Y-34073D01*
X33454Y-34102D01*
X33482Y-34131D01*
X33511Y-34188D01*
X33511Y-34273D01*
X33111Y-33902D02*
X33111Y-33673D01*
X32911Y-33816D02*
X33425Y-33816D01*
X33482Y-33788D01*
X33511Y-33730D01*
X33511Y-33673D01*
X33511Y-33387D02*
X33482Y-33445D01*
X33454Y-33473D01*
X33397Y-33502D01*
X33225Y-33502D01*
X33168Y-33473D01*
X33139Y-33445D01*
X33111Y-33387D01*
X33111Y-33302D01*
X33139Y-33245D01*
X33168Y-33216D01*
X33225Y-33187D01*
X33397Y-33187D01*
X33454Y-33216D01*
X33482Y-33245D01*
X33511Y-33302D01*
X33511Y-33387D01*
X33111Y-32673D02*
X33597Y-32673D01*
X33654Y-32702D01*
X33682Y-32730D01*
X33711Y-32787D01*
X33711Y-32873D01*
X33682Y-32930D01*
X33482Y-32673D02*
X33511Y-32730D01*
X33511Y-32844D01*
X33482Y-32902D01*
X33454Y-32930D01*
X33397Y-32959D01*
X33225Y-32959D01*
X33168Y-32930D01*
X33139Y-32902D01*
X33111Y-32844D01*
X33111Y-32730D01*
X33139Y-32673D01*
X33511Y-32130D02*
X33197Y-32130D01*
X33139Y-32159D01*
X33111Y-32216D01*
X33111Y-32330D01*
X33139Y-32387D01*
X33482Y-32130D02*
X33511Y-32187D01*
X33511Y-32330D01*
X33482Y-32387D01*
X33425Y-32416D01*
X33368Y-32416D01*
X33311Y-32387D01*
X33282Y-32330D01*
X33282Y-32187D01*
X33254Y-32130D01*
X33111Y-31930D02*
X33111Y-31701D01*
X32911Y-31844D02*
X33425Y-31844D01*
X33482Y-31816D01*
X33511Y-31758D01*
X33511Y-31701D01*
X33482Y-31273D02*
X33511Y-31330D01*
X33511Y-31444D01*
X33482Y-31501D01*
X33425Y-31530D01*
X33197Y-31530D01*
X33139Y-31501D01*
X33111Y-31444D01*
X33111Y-31330D01*
X33139Y-31273D01*
X33197Y-31244D01*
X33254Y-31244D01*
X33311Y-31530D01*
X33511Y-30216D02*
X33511Y-30559D01*
X33511Y-30387D02*
X32911Y-30387D01*
X32997Y-30444D01*
X33054Y-30502D01*
X33082Y-30559D01*
X33643Y-46028D02*
X33043Y-46028D01*
X33043Y-45800D01*
X33071Y-45742D01*
X33100Y-45714D01*
X33157Y-45685D01*
X33243Y-45685D01*
X33300Y-45714D01*
X33329Y-45742D01*
X33357Y-45800D01*
X33357Y-46028D01*
X33643Y-45428D02*
X33043Y-45428D01*
X33643Y-45171D02*
X33329Y-45171D01*
X33271Y-45200D01*
X33243Y-45257D01*
X33243Y-45342D01*
X33271Y-45400D01*
X33300Y-45428D01*
X33643Y-44799D02*
X33614Y-44857D01*
X33586Y-44885D01*
X33529Y-44914D01*
X33357Y-44914D01*
X33300Y-44885D01*
X33271Y-44857D01*
X33243Y-44799D01*
X33243Y-44714D01*
X33271Y-44657D01*
X33300Y-44628D01*
X33357Y-44599D01*
X33529Y-44599D01*
X33586Y-44628D01*
X33614Y-44657D01*
X33643Y-44714D01*
X33643Y-44799D01*
X33243Y-44428D02*
X33243Y-44199D01*
X33043Y-44342D02*
X33557Y-44342D01*
X33614Y-44314D01*
X33643Y-44256D01*
X33643Y-44199D01*
X33643Y-43913D02*
X33614Y-43971D01*
X33586Y-43999D01*
X33529Y-44028D01*
X33357Y-44028D01*
X33300Y-43999D01*
X33271Y-43971D01*
X33243Y-43913D01*
X33243Y-43828D01*
X33271Y-43771D01*
X33300Y-43742D01*
X33357Y-43713D01*
X33529Y-43713D01*
X33586Y-43742D01*
X33614Y-43771D01*
X33643Y-43828D01*
X33643Y-43913D01*
X33243Y-43199D02*
X33729Y-43199D01*
X33786Y-43228D01*
X33814Y-43256D01*
X33843Y-43313D01*
X33843Y-43399D01*
X33814Y-43456D01*
X33614Y-43199D02*
X33643Y-43256D01*
X33643Y-43370D01*
X33614Y-43428D01*
X33586Y-43456D01*
X33529Y-43485D01*
X33357Y-43485D01*
X33300Y-43456D01*
X33271Y-43428D01*
X33243Y-43370D01*
X33243Y-43256D01*
X33271Y-43199D01*
X33643Y-42656D02*
X33329Y-42656D01*
X33271Y-42685D01*
X33243Y-42742D01*
X33243Y-42856D01*
X33271Y-42913D01*
X33614Y-42656D02*
X33643Y-42713D01*
X33643Y-42856D01*
X33614Y-42913D01*
X33557Y-42942D01*
X33500Y-42942D01*
X33443Y-42913D01*
X33414Y-42856D01*
X33414Y-42713D01*
X33386Y-42656D01*
X33243Y-42456D02*
X33243Y-42227D01*
X33043Y-42370D02*
X33557Y-42370D01*
X33614Y-42342D01*
X33643Y-42284D01*
X33643Y-42227D01*
X33614Y-41799D02*
X33643Y-41856D01*
X33643Y-41970D01*
X33614Y-42027D01*
X33557Y-42056D01*
X33329Y-42056D01*
X33271Y-42027D01*
X33243Y-41970D01*
X33243Y-41856D01*
X33271Y-41799D01*
X33329Y-41770D01*
X33386Y-41770D01*
X33443Y-42056D01*
X33100Y-41085D02*
X33071Y-41056D01*
X33043Y-40999D01*
X33043Y-40856D01*
X33071Y-40799D01*
X33100Y-40770D01*
X33157Y-40742D01*
X33214Y-40742D01*
X33300Y-40770D01*
X33643Y-41113D01*
X33643Y-40742D01*
G54D12*
X29265Y-29848D02*
X29246Y-29867D01*
X29189Y-29886D01*
X29151Y-29886D01*
X29093Y-29867D01*
X29055Y-29829D01*
X29036Y-29791D01*
X29017Y-29714D01*
X29017Y-29657D01*
X29036Y-29581D01*
X29055Y-29543D01*
X29093Y-29505D01*
X29151Y-29486D01*
X29189Y-29486D01*
X29246Y-29505D01*
X29265Y-29524D01*
X29646Y-29886D02*
X29417Y-29886D01*
X29531Y-29886D02*
X29531Y-29486D01*
X29493Y-29543D01*
X29455Y-29581D01*
X29417Y-29600D01*
X29265Y-45400D02*
X29246Y-45419D01*
X29189Y-45438D01*
X29151Y-45438D01*
X29093Y-45419D01*
X29055Y-45381D01*
X29036Y-45343D01*
X29017Y-45266D01*
X29017Y-45209D01*
X29036Y-45133D01*
X29055Y-45095D01*
X29093Y-45057D01*
X29151Y-45038D01*
X29189Y-45038D01*
X29246Y-45057D01*
X29265Y-45076D01*
X29417Y-45076D02*
X29436Y-45057D01*
X29474Y-45038D01*
X29570Y-45038D01*
X29608Y-45057D01*
X29627Y-45076D01*
X29646Y-45114D01*
X29646Y-45152D01*
X29627Y-45209D01*
X29398Y-45438D01*
X29646Y-45438D01*
M02*
