M48
;DRILL file {Pcbnew (2012-apr-16-27)-stable} date Thu 10 Jul 2014 06:21:59 PM PDT
;FORMAT={-:-/ absolute / inch / decimal}
FMAT,2
INCH,TZ
T1C0.032
T2C0.035
T3C0.128
%
G90
G05
M72
T1
X2.613Y2.862
X2.713Y2.862
X2.716Y3.118
X2.716Y3.418
X2.716Y4.181
X2.716Y4.481
X2.813Y2.862
X2.850Y3.681
X2.850Y3.937
X2.888Y3.051
X2.888Y3.283
X2.888Y4.336
X2.888Y4.606
X2.913Y2.862
X2.973Y4.762
X2.988Y3.051
X2.988Y3.283
X2.988Y4.336
X2.988Y4.606
X3.013Y2.862
X3.027Y3.681
X3.027Y3.937
X3.073Y4.762
X3.113Y2.862
X3.173Y4.762
X3.189Y3.118
X3.189Y3.418
X3.209Y4.181
X3.209Y4.481
X3.213Y2.862
X3.273Y4.762
X3.313Y2.862
X3.373Y4.762
X3.413Y3.701
X3.413Y3.917
X3.473Y2.862
X3.473Y4.762
X3.573Y2.862
X3.673Y2.862
X3.673Y4.762
X3.713Y3.701
X3.713Y3.917
X3.773Y2.862
X3.773Y4.762
X3.873Y2.862
X3.873Y4.762
X3.905Y3.701
X3.905Y3.917
X3.973Y2.862
X3.973Y4.762
X4.073Y2.862
X4.073Y4.762
X4.173Y2.862
X4.173Y4.762
X4.205Y3.701
X4.205Y3.917
T2
X3.502Y3.208
X3.502Y3.308
X3.502Y3.408
X3.502Y4.261
X3.502Y4.361
X3.502Y4.461
X3.602Y3.158
X3.602Y3.258
X3.602Y3.358
X3.602Y4.211
X3.602Y4.311
X3.602Y4.411
T3
X3.852Y3.083
X3.852Y3.483
X3.852Y4.136
X3.852Y4.536
T0
M30
