G04 (created by PCBNEW-RS274X (2012-apr-16-27)-stable) date Thu 10 Jul 2014 06:21:53 PM PDT*
G01*
G70*
G90*
%MOIN*%
G04 Gerber Fmt 3.4, Leading zero omitted, Abs format*
%FSLAX34Y34*%
G04 APERTURE LIST*
%ADD10C,0.006000*%
%ADD11C,0.075000*%
%ADD12C,0.080000*%
%ADD13C,0.086000*%
%ADD14C,0.158000*%
%ADD15C,0.070000*%
%ADD16O,0.080000X0.120000*%
G04 APERTURE END LIST*
G54D10*
G54D11*
X27165Y-31177D03*
X27165Y-34177D03*
X27165Y-44807D03*
X27165Y-41807D03*
X31890Y-31177D03*
X31890Y-34177D03*
X32087Y-41807D03*
X32087Y-44807D03*
X34131Y-37008D03*
X37131Y-37008D03*
X37131Y-39173D03*
X34131Y-39173D03*
X39052Y-37008D03*
X42052Y-37008D03*
X39052Y-39173D03*
X42052Y-39173D03*
G54D12*
X28496Y-39371D03*
X30268Y-39371D03*
X28496Y-36811D03*
X30268Y-36811D03*
G54D13*
X28882Y-32825D03*
X29882Y-32825D03*
X28882Y-43356D03*
X29882Y-43356D03*
G54D14*
X38522Y-34825D03*
X38522Y-30825D03*
G54D15*
X35022Y-34075D03*
X36022Y-33575D03*
X35022Y-33075D03*
X36022Y-32575D03*
X35022Y-32075D03*
X36022Y-31575D03*
G54D14*
X38522Y-45356D03*
X38522Y-41356D03*
G54D15*
X35022Y-44606D03*
X36022Y-44106D03*
X35022Y-43606D03*
X36022Y-43106D03*
X35022Y-42606D03*
X36022Y-42106D03*
G54D11*
X28882Y-30512D03*
X29882Y-30512D03*
X28882Y-46063D03*
X29882Y-46063D03*
G54D16*
X41732Y-47622D03*
X40732Y-47622D03*
X39732Y-47622D03*
X36732Y-47622D03*
X37732Y-47622D03*
X38732Y-47622D03*
X34732Y-47622D03*
X33732Y-47622D03*
X32732Y-47622D03*
X30732Y-47622D03*
X29732Y-47622D03*
X41732Y-28622D03*
X40732Y-28622D03*
X39732Y-28622D03*
X38732Y-28622D03*
X37732Y-28622D03*
X36732Y-28622D03*
X35732Y-28622D03*
X34732Y-28622D03*
X33132Y-28622D03*
X32132Y-28622D03*
X31132Y-28622D03*
X30132Y-28622D03*
X29132Y-28622D03*
X28132Y-28622D03*
X27132Y-28622D03*
X26132Y-28622D03*
X31732Y-47622D03*
M02*
