G04 (created by PCBNEW-RS274X (2012-apr-16-27)-stable) date Thu 10 Jul 2014 06:21:53 PM PDT*
G01*
G70*
G90*
%MOIN*%
G04 Gerber Fmt 3.4, Leading zero omitted, Abs format*
%FSLAX34Y34*%
G04 APERTURE LIST*
%ADD10C,0.006000*%
%ADD11C,0.055000*%
%ADD12C,0.060000*%
%ADD13C,0.066000*%
%ADD14C,0.138000*%
%ADD15C,0.050000*%
%ADD16O,0.060000X0.100000*%
%ADD17C,0.020000*%
%ADD18C,0.010000*%
G04 APERTURE END LIST*
G54D10*
G54D11*
X27165Y-31177D03*
X27165Y-34177D03*
X27165Y-44807D03*
X27165Y-41807D03*
X31890Y-31177D03*
X31890Y-34177D03*
X32087Y-41807D03*
X32087Y-44807D03*
X34131Y-37008D03*
X37131Y-37008D03*
X37131Y-39173D03*
X34131Y-39173D03*
X39052Y-37008D03*
X42052Y-37008D03*
X39052Y-39173D03*
X42052Y-39173D03*
G54D12*
X28496Y-39371D03*
X30268Y-39371D03*
X28496Y-36811D03*
X30268Y-36811D03*
G54D13*
X28882Y-32825D03*
X29882Y-32825D03*
X28882Y-43356D03*
X29882Y-43356D03*
G54D14*
X38522Y-34825D03*
X38522Y-30825D03*
G54D15*
X35022Y-34075D03*
X36022Y-33575D03*
X35022Y-33075D03*
X36022Y-32575D03*
X35022Y-32075D03*
X36022Y-31575D03*
G54D14*
X38522Y-45356D03*
X38522Y-41356D03*
G54D15*
X35022Y-44606D03*
X36022Y-44106D03*
X35022Y-43606D03*
X36022Y-43106D03*
X35022Y-42606D03*
X36022Y-42106D03*
G54D11*
X28882Y-30512D03*
X29882Y-30512D03*
X28882Y-46063D03*
X29882Y-46063D03*
G54D16*
X41732Y-47622D03*
X40732Y-47622D03*
X39732Y-47622D03*
X36732Y-47622D03*
X37732Y-47622D03*
X38732Y-47622D03*
X34732Y-47622D03*
X33732Y-47622D03*
X32732Y-47622D03*
X30732Y-47622D03*
X29732Y-47622D03*
X41732Y-28622D03*
X40732Y-28622D03*
X39732Y-28622D03*
X38732Y-28622D03*
X37732Y-28622D03*
X36732Y-28622D03*
X35732Y-28622D03*
X34732Y-28622D03*
X33132Y-28622D03*
X32132Y-28622D03*
X31132Y-28622D03*
X30132Y-28622D03*
X29132Y-28622D03*
X28132Y-28622D03*
X27132Y-28622D03*
X26132Y-28622D03*
X31732Y-47622D03*
G54D17*
X34865Y-43106D02*
X34385Y-42626D01*
X35022Y-44606D02*
X35522Y-44106D01*
X35022Y-41909D02*
X35022Y-34075D01*
X34385Y-42546D02*
X35022Y-41909D01*
X35277Y-43106D02*
X34865Y-43106D01*
X35522Y-43351D02*
X35277Y-43106D01*
X35522Y-44106D02*
X35522Y-43351D01*
X34385Y-42626D02*
X34385Y-42546D01*
X35522Y-43351D02*
X35777Y-43351D01*
X35777Y-43351D02*
X36022Y-43106D01*
X35568Y-42060D02*
X35022Y-42606D01*
X35568Y-30489D02*
X35568Y-42060D01*
X36732Y-29325D02*
X35568Y-30489D01*
X36732Y-28622D02*
X36732Y-29325D01*
X27165Y-44807D02*
X27165Y-44049D01*
X27165Y-44049D02*
X28884Y-42330D01*
X34732Y-28622D02*
X34732Y-29325D01*
X28884Y-42330D02*
X32285Y-42330D01*
X32285Y-42330D02*
X34718Y-39897D01*
X34718Y-39897D02*
X34718Y-34498D01*
X34524Y-34304D02*
X34524Y-29533D01*
X34524Y-29533D02*
X34732Y-29325D01*
X34718Y-34498D02*
X34524Y-34304D01*
X33132Y-32175D02*
X28496Y-36811D01*
X33132Y-28622D02*
X33132Y-32175D01*
X38732Y-27919D02*
X34294Y-27919D01*
X34294Y-27919D02*
X33936Y-28277D01*
X38732Y-28622D02*
X38732Y-27919D01*
X33936Y-36398D02*
X32087Y-38247D01*
X33936Y-28277D02*
X33936Y-36398D01*
X32087Y-38247D02*
X32087Y-41807D01*
X36022Y-31575D02*
X37131Y-32684D01*
X37131Y-32684D02*
X37131Y-37008D01*
X42052Y-37549D02*
X42052Y-37008D01*
X42052Y-39173D02*
X42052Y-37549D01*
X37131Y-37008D02*
X37672Y-37549D01*
X37672Y-37549D02*
X42052Y-37549D01*
X29882Y-30512D02*
X29882Y-32825D01*
X29882Y-46063D02*
X29882Y-43356D01*
X32732Y-46919D02*
X30738Y-46919D01*
X30738Y-46919D02*
X29882Y-46063D01*
X32732Y-47622D02*
X32732Y-46919D01*
X37131Y-42997D02*
X36022Y-44106D01*
X37131Y-39173D02*
X37131Y-42997D01*
G54D10*
G36*
X34368Y-39752D02*
X32555Y-41565D01*
X32532Y-41510D01*
X32437Y-41414D01*
X32437Y-38391D01*
X33638Y-37190D01*
X33686Y-37305D01*
X33833Y-37453D01*
X34026Y-37533D01*
X34235Y-37533D01*
X34368Y-37477D01*
X34368Y-38710D01*
X34205Y-38654D01*
X34001Y-38665D01*
X33864Y-38721D01*
X33841Y-38812D01*
X34096Y-39067D01*
X34131Y-39102D01*
X34202Y-39173D01*
X34131Y-39244D01*
X34096Y-39279D01*
X34060Y-39315D01*
X34060Y-39173D01*
X33770Y-38883D01*
X33679Y-38906D01*
X33612Y-39099D01*
X33623Y-39303D01*
X33679Y-39440D01*
X33770Y-39463D01*
X34060Y-39173D01*
X34060Y-39315D01*
X33841Y-39534D01*
X33864Y-39625D01*
X34057Y-39692D01*
X34261Y-39681D01*
X34368Y-39637D01*
X34368Y-39752D01*
X34368Y-39752D01*
G37*
G54D18*
X34368Y-39752D02*
X32555Y-41565D01*
X32532Y-41510D01*
X32437Y-41414D01*
X32437Y-38391D01*
X33638Y-37190D01*
X33686Y-37305D01*
X33833Y-37453D01*
X34026Y-37533D01*
X34235Y-37533D01*
X34368Y-37477D01*
X34368Y-38710D01*
X34205Y-38654D01*
X34001Y-38665D01*
X33864Y-38721D01*
X33841Y-38812D01*
X34096Y-39067D01*
X34131Y-39102D01*
X34202Y-39173D01*
X34131Y-39244D01*
X34096Y-39279D01*
X34060Y-39315D01*
X34060Y-39173D01*
X33770Y-38883D01*
X33679Y-38906D01*
X33612Y-39099D01*
X33623Y-39303D01*
X33679Y-39440D01*
X33770Y-39463D01*
X34060Y-39173D01*
X34060Y-39315D01*
X33841Y-39534D01*
X33864Y-39625D01*
X34057Y-39692D01*
X34261Y-39681D01*
X34368Y-39637D01*
X34368Y-39752D01*
G54D10*
G36*
X42403Y-48297D02*
X42342Y-48297D01*
X42030Y-48297D01*
X42038Y-48294D01*
X42189Y-48142D01*
X42272Y-47944D01*
X42272Y-47729D01*
X42272Y-47301D01*
X42190Y-47102D01*
X42038Y-46951D01*
X41840Y-46868D01*
X41625Y-46868D01*
X41426Y-46950D01*
X41275Y-47102D01*
X41232Y-47204D01*
X41190Y-47102D01*
X41038Y-46951D01*
X40840Y-46868D01*
X40625Y-46868D01*
X40426Y-46950D01*
X40275Y-47102D01*
X40232Y-47204D01*
X40190Y-47102D01*
X40038Y-46951D01*
X39840Y-46868D01*
X39625Y-46868D01*
X39577Y-46887D01*
X39577Y-39278D01*
X39577Y-39069D01*
X39577Y-37113D01*
X39577Y-36904D01*
X39497Y-36711D01*
X39462Y-36675D01*
X39462Y-35013D01*
X39462Y-34639D01*
X39462Y-31013D01*
X39462Y-30639D01*
X39319Y-30293D01*
X39055Y-30029D01*
X38710Y-29885D01*
X38336Y-29885D01*
X37990Y-30028D01*
X37726Y-30292D01*
X37582Y-30637D01*
X37582Y-31011D01*
X37725Y-31357D01*
X37989Y-31621D01*
X38334Y-31765D01*
X38708Y-31765D01*
X39054Y-31622D01*
X39318Y-31358D01*
X39462Y-31013D01*
X39462Y-34639D01*
X39319Y-34293D01*
X39055Y-34029D01*
X38710Y-33885D01*
X38336Y-33885D01*
X37990Y-34028D01*
X37726Y-34292D01*
X37582Y-34637D01*
X37582Y-35011D01*
X37725Y-35357D01*
X37989Y-35621D01*
X38334Y-35765D01*
X38708Y-35765D01*
X39054Y-35622D01*
X39318Y-35358D01*
X39462Y-35013D01*
X39462Y-36675D01*
X39350Y-36563D01*
X39157Y-36483D01*
X38948Y-36483D01*
X38755Y-36563D01*
X38607Y-36710D01*
X38527Y-36903D01*
X38527Y-37112D01*
X38607Y-37305D01*
X38754Y-37453D01*
X38947Y-37533D01*
X39156Y-37533D01*
X39349Y-37453D01*
X39497Y-37306D01*
X39577Y-37113D01*
X39577Y-39069D01*
X39497Y-38876D01*
X39350Y-38728D01*
X39157Y-38648D01*
X38948Y-38648D01*
X38755Y-38728D01*
X38607Y-38875D01*
X38527Y-39068D01*
X38527Y-39277D01*
X38607Y-39470D01*
X38754Y-39618D01*
X38947Y-39698D01*
X39156Y-39698D01*
X39349Y-39618D01*
X39497Y-39471D01*
X39577Y-39278D01*
X39577Y-46887D01*
X39462Y-46935D01*
X39462Y-45544D01*
X39462Y-45170D01*
X39462Y-41544D01*
X39462Y-41170D01*
X39319Y-40824D01*
X39055Y-40560D01*
X38710Y-40416D01*
X38336Y-40416D01*
X37990Y-40559D01*
X37726Y-40823D01*
X37582Y-41168D01*
X37582Y-41542D01*
X37725Y-41888D01*
X37989Y-42152D01*
X38334Y-42296D01*
X38708Y-42296D01*
X39054Y-42153D01*
X39318Y-41889D01*
X39462Y-41544D01*
X39462Y-45170D01*
X39319Y-44824D01*
X39055Y-44560D01*
X38710Y-44416D01*
X38336Y-44416D01*
X37990Y-44559D01*
X37726Y-44823D01*
X37582Y-45168D01*
X37582Y-45542D01*
X37725Y-45888D01*
X37989Y-46152D01*
X38334Y-46296D01*
X38708Y-46296D01*
X39054Y-46153D01*
X39318Y-45889D01*
X39462Y-45544D01*
X39462Y-46935D01*
X39426Y-46950D01*
X39275Y-47102D01*
X39232Y-47204D01*
X39190Y-47102D01*
X39038Y-46951D01*
X38840Y-46868D01*
X38625Y-46868D01*
X38426Y-46950D01*
X38275Y-47102D01*
X38232Y-47204D01*
X38190Y-47102D01*
X38038Y-46951D01*
X37840Y-46868D01*
X37625Y-46868D01*
X37426Y-46950D01*
X37275Y-47102D01*
X37232Y-47204D01*
X37190Y-47102D01*
X37038Y-46951D01*
X36840Y-46868D01*
X36625Y-46868D01*
X36426Y-46950D01*
X36275Y-47102D01*
X36192Y-47300D01*
X36192Y-47515D01*
X36192Y-47943D01*
X36274Y-48142D01*
X36426Y-48293D01*
X36435Y-48297D01*
X35030Y-48297D01*
X35038Y-48294D01*
X35189Y-48142D01*
X35272Y-47944D01*
X35272Y-47729D01*
X35272Y-47301D01*
X35190Y-47102D01*
X35038Y-46951D01*
X34840Y-46868D01*
X34625Y-46868D01*
X34426Y-46950D01*
X34275Y-47102D01*
X34232Y-47204D01*
X34190Y-47102D01*
X34038Y-46951D01*
X33840Y-46868D01*
X33625Y-46868D01*
X33426Y-46950D01*
X33275Y-47102D01*
X33232Y-47203D01*
X33221Y-47165D01*
X33085Y-46997D01*
X32895Y-46894D01*
X32867Y-46890D01*
X32782Y-46937D01*
X32782Y-47522D01*
X32782Y-47572D01*
X32782Y-47672D01*
X32682Y-47672D01*
X32682Y-47572D01*
X32682Y-47522D01*
X32682Y-46937D01*
X32612Y-46898D01*
X32612Y-44912D01*
X32612Y-44703D01*
X32532Y-44510D01*
X32385Y-44362D01*
X32192Y-44282D01*
X31983Y-44282D01*
X31790Y-44362D01*
X31642Y-44509D01*
X31562Y-44702D01*
X31562Y-44911D01*
X31642Y-45104D01*
X31789Y-45252D01*
X31982Y-45332D01*
X32191Y-45332D01*
X32384Y-45252D01*
X32532Y-45105D01*
X32612Y-44912D01*
X32612Y-46898D01*
X32597Y-46890D01*
X32569Y-46894D01*
X32379Y-46997D01*
X32243Y-47165D01*
X32231Y-47203D01*
X32190Y-47102D01*
X32038Y-46951D01*
X31840Y-46868D01*
X31625Y-46868D01*
X31426Y-46950D01*
X31275Y-47102D01*
X31232Y-47204D01*
X31190Y-47102D01*
X31038Y-46951D01*
X30840Y-46868D01*
X30625Y-46868D01*
X30455Y-46938D01*
X30455Y-43442D01*
X30444Y-43217D01*
X30378Y-43058D01*
X30282Y-43027D01*
X30211Y-43098D01*
X30211Y-42956D01*
X30180Y-42860D01*
X29968Y-42783D01*
X29743Y-42794D01*
X29584Y-42860D01*
X29553Y-42956D01*
X29882Y-43285D01*
X30211Y-42956D01*
X30211Y-43098D01*
X29953Y-43356D01*
X30282Y-43685D01*
X30378Y-43654D01*
X30455Y-43442D01*
X30455Y-46938D01*
X30426Y-46950D01*
X30401Y-46975D01*
X30401Y-46137D01*
X30390Y-45933D01*
X30334Y-45796D01*
X30243Y-45773D01*
X30211Y-45805D01*
X30211Y-43756D01*
X29882Y-43427D01*
X29553Y-43756D01*
X29584Y-43852D01*
X29796Y-43929D01*
X30021Y-43918D01*
X30180Y-43852D01*
X30211Y-43756D01*
X30211Y-45805D01*
X30172Y-45844D01*
X30172Y-45702D01*
X30149Y-45611D01*
X29956Y-45544D01*
X29752Y-45555D01*
X29615Y-45611D01*
X29592Y-45702D01*
X29882Y-45992D01*
X30172Y-45702D01*
X30172Y-45844D01*
X29953Y-46063D01*
X30243Y-46353D01*
X30334Y-46330D01*
X30401Y-46137D01*
X30401Y-46975D01*
X30275Y-47102D01*
X30232Y-47204D01*
X30190Y-47102D01*
X30172Y-47084D01*
X30172Y-46424D01*
X29882Y-46134D01*
X29811Y-46205D01*
X29811Y-46063D01*
X29521Y-45773D01*
X29430Y-45796D01*
X29388Y-45914D01*
X29327Y-45766D01*
X29180Y-45618D01*
X28987Y-45538D01*
X28778Y-45538D01*
X28585Y-45618D01*
X28437Y-45765D01*
X28357Y-45958D01*
X28357Y-46167D01*
X28437Y-46360D01*
X28584Y-46508D01*
X28777Y-46588D01*
X28986Y-46588D01*
X29179Y-46508D01*
X29327Y-46361D01*
X29385Y-46220D01*
X29430Y-46330D01*
X29521Y-46353D01*
X29811Y-46063D01*
X29811Y-46205D01*
X29592Y-46424D01*
X29615Y-46515D01*
X29808Y-46582D01*
X30012Y-46571D01*
X30149Y-46515D01*
X30172Y-46424D01*
X30172Y-47084D01*
X30038Y-46951D01*
X29840Y-46868D01*
X29625Y-46868D01*
X29426Y-46950D01*
X29275Y-47102D01*
X29192Y-47300D01*
X29192Y-47515D01*
X29192Y-47943D01*
X29274Y-48142D01*
X29426Y-48293D01*
X29435Y-48297D01*
X25258Y-48297D01*
X25258Y-27884D01*
X25986Y-27884D01*
X25826Y-27950D01*
X25675Y-28102D01*
X25592Y-28300D01*
X25592Y-28515D01*
X25592Y-28943D01*
X25674Y-29142D01*
X25826Y-29293D01*
X26024Y-29376D01*
X26239Y-29376D01*
X26438Y-29294D01*
X26589Y-29142D01*
X26631Y-29039D01*
X26674Y-29142D01*
X26826Y-29293D01*
X27024Y-29376D01*
X27239Y-29376D01*
X27438Y-29294D01*
X27589Y-29142D01*
X27631Y-29039D01*
X27674Y-29142D01*
X27826Y-29293D01*
X28024Y-29376D01*
X28239Y-29376D01*
X28438Y-29294D01*
X28589Y-29142D01*
X28631Y-29039D01*
X28674Y-29142D01*
X28826Y-29293D01*
X29024Y-29376D01*
X29239Y-29376D01*
X29438Y-29294D01*
X29589Y-29142D01*
X29631Y-29039D01*
X29674Y-29142D01*
X29826Y-29293D01*
X30024Y-29376D01*
X30239Y-29376D01*
X30438Y-29294D01*
X30589Y-29142D01*
X30631Y-29039D01*
X30674Y-29142D01*
X30826Y-29293D01*
X31024Y-29376D01*
X31239Y-29376D01*
X31438Y-29294D01*
X31589Y-29142D01*
X31631Y-29039D01*
X31674Y-29142D01*
X31826Y-29293D01*
X32024Y-29376D01*
X32239Y-29376D01*
X32438Y-29294D01*
X32589Y-29142D01*
X32631Y-29039D01*
X32674Y-29142D01*
X32782Y-29249D01*
X32782Y-32030D01*
X32415Y-32397D01*
X32415Y-31282D01*
X32415Y-31073D01*
X32335Y-30880D01*
X32188Y-30732D01*
X31995Y-30652D01*
X31786Y-30652D01*
X31593Y-30732D01*
X31445Y-30879D01*
X31365Y-31072D01*
X31365Y-31281D01*
X31445Y-31474D01*
X31592Y-31622D01*
X31785Y-31702D01*
X31994Y-31702D01*
X32187Y-31622D01*
X32335Y-31475D01*
X32415Y-31282D01*
X32415Y-32397D01*
X30455Y-34357D01*
X30455Y-32911D01*
X30444Y-32686D01*
X30401Y-32582D01*
X30401Y-30586D01*
X30390Y-30382D01*
X30334Y-30245D01*
X30243Y-30222D01*
X30172Y-30293D01*
X30172Y-30151D01*
X30149Y-30060D01*
X29956Y-29993D01*
X29752Y-30004D01*
X29615Y-30060D01*
X29592Y-30151D01*
X29882Y-30441D01*
X30172Y-30151D01*
X30172Y-30293D01*
X29953Y-30512D01*
X30243Y-30802D01*
X30334Y-30779D01*
X30401Y-30586D01*
X30401Y-32582D01*
X30378Y-32527D01*
X30282Y-32496D01*
X30211Y-32567D01*
X30211Y-32425D01*
X30180Y-32329D01*
X30172Y-32326D01*
X30172Y-30873D01*
X29882Y-30583D01*
X29811Y-30654D01*
X29811Y-30512D01*
X29521Y-30222D01*
X29430Y-30245D01*
X29388Y-30363D01*
X29327Y-30215D01*
X29180Y-30067D01*
X28987Y-29987D01*
X28778Y-29987D01*
X28585Y-30067D01*
X28437Y-30214D01*
X28357Y-30407D01*
X28357Y-30616D01*
X28437Y-30809D01*
X28584Y-30957D01*
X28777Y-31037D01*
X28986Y-31037D01*
X29179Y-30957D01*
X29327Y-30810D01*
X29385Y-30669D01*
X29430Y-30779D01*
X29521Y-30802D01*
X29811Y-30512D01*
X29811Y-30654D01*
X29592Y-30873D01*
X29615Y-30964D01*
X29808Y-31031D01*
X30012Y-31020D01*
X30149Y-30964D01*
X30172Y-30873D01*
X30172Y-32326D01*
X29968Y-32252D01*
X29743Y-32263D01*
X29584Y-32329D01*
X29553Y-32425D01*
X29882Y-32754D01*
X30211Y-32425D01*
X30211Y-32567D01*
X29953Y-32825D01*
X30282Y-33154D01*
X30378Y-33123D01*
X30455Y-32911D01*
X30455Y-34357D01*
X30211Y-34601D01*
X30211Y-33225D01*
X29882Y-32896D01*
X29811Y-32967D01*
X29811Y-32825D01*
X29482Y-32496D01*
X29386Y-32526D01*
X29374Y-32497D01*
X29211Y-32334D01*
X28998Y-32245D01*
X28767Y-32245D01*
X28554Y-32333D01*
X28391Y-32496D01*
X28302Y-32709D01*
X28302Y-32940D01*
X28390Y-33153D01*
X28553Y-33316D01*
X28766Y-33405D01*
X28997Y-33405D01*
X29210Y-33317D01*
X29373Y-33154D01*
X29385Y-33122D01*
X29386Y-33123D01*
X29482Y-33154D01*
X29811Y-32825D01*
X29811Y-32967D01*
X29553Y-33225D01*
X29584Y-33321D01*
X29796Y-33398D01*
X30021Y-33387D01*
X30180Y-33321D01*
X30211Y-33225D01*
X30211Y-34601D01*
X28550Y-36262D01*
X28387Y-36262D01*
X28185Y-36346D01*
X28031Y-36500D01*
X27947Y-36702D01*
X27947Y-36920D01*
X28031Y-37122D01*
X28185Y-37276D01*
X28387Y-37360D01*
X28605Y-37360D01*
X28807Y-37276D01*
X28961Y-37122D01*
X29045Y-36920D01*
X29045Y-36756D01*
X31410Y-34390D01*
X31445Y-34474D01*
X31592Y-34622D01*
X31785Y-34702D01*
X31994Y-34702D01*
X32187Y-34622D01*
X32335Y-34475D01*
X32415Y-34282D01*
X32415Y-34073D01*
X32335Y-33880D01*
X32188Y-33732D01*
X32104Y-33697D01*
X33379Y-32423D01*
X33379Y-32422D01*
X33455Y-32309D01*
X33481Y-32175D01*
X33482Y-32175D01*
X33482Y-29249D01*
X33586Y-29145D01*
X33586Y-36253D01*
X31840Y-38000D01*
X31764Y-38113D01*
X31737Y-38247D01*
X31737Y-41414D01*
X31642Y-41509D01*
X31562Y-41702D01*
X31562Y-41911D01*
X31590Y-41980D01*
X30817Y-41980D01*
X30817Y-36920D01*
X30817Y-36702D01*
X30733Y-36500D01*
X30579Y-36346D01*
X30377Y-36262D01*
X30159Y-36262D01*
X29957Y-36346D01*
X29803Y-36500D01*
X29719Y-36702D01*
X29719Y-36920D01*
X29803Y-37122D01*
X29957Y-37276D01*
X30159Y-37360D01*
X30377Y-37360D01*
X30579Y-37276D01*
X30733Y-37122D01*
X30817Y-36920D01*
X30817Y-41980D01*
X30811Y-41980D01*
X30811Y-39450D01*
X30800Y-39237D01*
X30740Y-39090D01*
X30646Y-39063D01*
X30576Y-39133D01*
X30576Y-38993D01*
X30549Y-38899D01*
X30347Y-38828D01*
X30134Y-38839D01*
X29987Y-38899D01*
X29960Y-38993D01*
X30268Y-39300D01*
X30576Y-38993D01*
X30576Y-39133D01*
X30339Y-39371D01*
X30646Y-39679D01*
X30740Y-39652D01*
X30811Y-39450D01*
X30811Y-41980D01*
X30576Y-41980D01*
X30576Y-39749D01*
X30268Y-39442D01*
X30197Y-39512D01*
X30197Y-39371D01*
X29890Y-39063D01*
X29796Y-39090D01*
X29725Y-39292D01*
X29736Y-39505D01*
X29796Y-39652D01*
X29890Y-39679D01*
X30197Y-39371D01*
X30197Y-39512D01*
X29960Y-39749D01*
X29987Y-39843D01*
X30189Y-39914D01*
X30402Y-39903D01*
X30549Y-39843D01*
X30576Y-39749D01*
X30576Y-41980D01*
X29045Y-41980D01*
X29045Y-39480D01*
X29045Y-39262D01*
X28961Y-39060D01*
X28807Y-38906D01*
X28605Y-38822D01*
X28387Y-38822D01*
X28185Y-38906D01*
X28031Y-39060D01*
X27947Y-39262D01*
X27947Y-39480D01*
X28031Y-39682D01*
X28185Y-39836D01*
X28387Y-39920D01*
X28605Y-39920D01*
X28807Y-39836D01*
X28961Y-39682D01*
X29045Y-39480D01*
X29045Y-41980D01*
X28884Y-41980D01*
X28750Y-42007D01*
X28636Y-42083D01*
X27690Y-43029D01*
X27690Y-41912D01*
X27690Y-41703D01*
X27690Y-34282D01*
X27690Y-34073D01*
X27690Y-31282D01*
X27690Y-31073D01*
X27610Y-30880D01*
X27463Y-30732D01*
X27270Y-30652D01*
X27061Y-30652D01*
X26868Y-30732D01*
X26720Y-30879D01*
X26640Y-31072D01*
X26640Y-31281D01*
X26720Y-31474D01*
X26867Y-31622D01*
X27060Y-31702D01*
X27269Y-31702D01*
X27462Y-31622D01*
X27610Y-31475D01*
X27690Y-31282D01*
X27690Y-34073D01*
X27610Y-33880D01*
X27463Y-33732D01*
X27270Y-33652D01*
X27061Y-33652D01*
X26868Y-33732D01*
X26720Y-33879D01*
X26640Y-34072D01*
X26640Y-34281D01*
X26720Y-34474D01*
X26867Y-34622D01*
X27060Y-34702D01*
X27269Y-34702D01*
X27462Y-34622D01*
X27610Y-34475D01*
X27690Y-34282D01*
X27690Y-41703D01*
X27610Y-41510D01*
X27463Y-41362D01*
X27270Y-41282D01*
X27061Y-41282D01*
X26868Y-41362D01*
X26720Y-41509D01*
X26640Y-41702D01*
X26640Y-41911D01*
X26720Y-42104D01*
X26867Y-42252D01*
X27060Y-42332D01*
X27269Y-42332D01*
X27462Y-42252D01*
X27610Y-42105D01*
X27690Y-41912D01*
X27690Y-43029D01*
X26918Y-43802D01*
X26842Y-43915D01*
X26815Y-44049D01*
X26815Y-44414D01*
X26720Y-44509D01*
X26640Y-44702D01*
X26640Y-44911D01*
X26720Y-45104D01*
X26867Y-45252D01*
X27060Y-45332D01*
X27269Y-45332D01*
X27462Y-45252D01*
X27610Y-45105D01*
X27690Y-44912D01*
X27690Y-44703D01*
X27610Y-44510D01*
X27515Y-44414D01*
X27515Y-44193D01*
X28302Y-43406D01*
X28302Y-43471D01*
X28390Y-43684D01*
X28553Y-43847D01*
X28766Y-43936D01*
X28997Y-43936D01*
X29210Y-43848D01*
X29373Y-43685D01*
X29385Y-43653D01*
X29386Y-43654D01*
X29482Y-43685D01*
X29811Y-43356D01*
X29482Y-43027D01*
X29386Y-43057D01*
X29374Y-43028D01*
X29211Y-42865D01*
X28998Y-42776D01*
X28932Y-42776D01*
X29028Y-42680D01*
X32285Y-42680D01*
X32285Y-42679D01*
X32419Y-42653D01*
X32532Y-42577D01*
X34672Y-40437D01*
X34672Y-41764D01*
X34138Y-42299D01*
X34062Y-42412D01*
X34035Y-42546D01*
X34035Y-42626D01*
X34062Y-42760D01*
X34138Y-42873D01*
X34595Y-43331D01*
X34523Y-43507D01*
X34523Y-43705D01*
X34599Y-43888D01*
X34739Y-44029D01*
X34923Y-44105D01*
X35028Y-44105D01*
X35026Y-44107D01*
X34923Y-44107D01*
X34740Y-44183D01*
X34599Y-44323D01*
X34523Y-44507D01*
X34523Y-44705D01*
X34599Y-44888D01*
X34739Y-45029D01*
X34923Y-45105D01*
X35121Y-45105D01*
X35304Y-45029D01*
X35445Y-44889D01*
X35521Y-44705D01*
X35521Y-44601D01*
X35666Y-44456D01*
X35739Y-44529D01*
X35923Y-44605D01*
X36121Y-44605D01*
X36304Y-44529D01*
X36445Y-44389D01*
X36521Y-44205D01*
X36521Y-44101D01*
X37378Y-43245D01*
X37378Y-43244D01*
X37454Y-43131D01*
X37480Y-42997D01*
X37481Y-42997D01*
X37481Y-39565D01*
X37576Y-39471D01*
X37656Y-39278D01*
X37656Y-39069D01*
X37650Y-39054D01*
X37650Y-37082D01*
X37639Y-36878D01*
X37583Y-36741D01*
X37492Y-36718D01*
X37421Y-36789D01*
X37421Y-36647D01*
X37398Y-36556D01*
X37205Y-36489D01*
X37001Y-36500D01*
X36864Y-36556D01*
X36841Y-36647D01*
X37131Y-36937D01*
X37421Y-36647D01*
X37421Y-36789D01*
X37202Y-37008D01*
X37492Y-37298D01*
X37583Y-37275D01*
X37650Y-37082D01*
X37650Y-39054D01*
X37576Y-38876D01*
X37429Y-38728D01*
X37421Y-38724D01*
X37421Y-37369D01*
X37131Y-37079D01*
X37060Y-37150D01*
X37060Y-37008D01*
X36770Y-36718D01*
X36679Y-36741D01*
X36612Y-36934D01*
X36623Y-37138D01*
X36679Y-37275D01*
X36770Y-37298D01*
X37060Y-37008D01*
X37060Y-37150D01*
X36841Y-37369D01*
X36864Y-37460D01*
X37057Y-37527D01*
X37261Y-37516D01*
X37398Y-37460D01*
X37421Y-37369D01*
X37421Y-38724D01*
X37236Y-38648D01*
X37027Y-38648D01*
X36834Y-38728D01*
X36686Y-38875D01*
X36606Y-39068D01*
X36606Y-39277D01*
X36686Y-39470D01*
X36781Y-39565D01*
X36781Y-42852D01*
X36521Y-43112D01*
X36521Y-43007D01*
X36517Y-42997D01*
X36517Y-42174D01*
X36505Y-41979D01*
X36453Y-41854D01*
X36365Y-41834D01*
X36093Y-42106D01*
X36365Y-42378D01*
X36453Y-42358D01*
X36517Y-42174D01*
X36517Y-42997D01*
X36445Y-42824D01*
X36305Y-42683D01*
X36294Y-42678D01*
X36294Y-42449D01*
X36022Y-42177D01*
X35750Y-42449D01*
X35770Y-42537D01*
X35954Y-42601D01*
X36149Y-42589D01*
X36274Y-42537D01*
X36294Y-42449D01*
X36294Y-42678D01*
X36121Y-42607D01*
X35923Y-42607D01*
X35740Y-42683D01*
X35599Y-42823D01*
X35566Y-42901D01*
X35524Y-42859D01*
X35471Y-42823D01*
X35521Y-42705D01*
X35521Y-42601D01*
X35815Y-42308D01*
X35815Y-42307D01*
X35891Y-42194D01*
X35897Y-42159D01*
X35898Y-42158D01*
X35915Y-42140D01*
X35916Y-42141D01*
X35951Y-42106D01*
X36022Y-42035D01*
X36057Y-42000D01*
X36294Y-41763D01*
X36274Y-41675D01*
X36090Y-41611D01*
X35918Y-41621D01*
X35918Y-34071D01*
X35923Y-34074D01*
X36121Y-34074D01*
X36304Y-33998D01*
X36445Y-33858D01*
X36521Y-33674D01*
X36521Y-33476D01*
X36445Y-33293D01*
X36305Y-33152D01*
X36121Y-33076D01*
X35923Y-33076D01*
X35918Y-33078D01*
X35918Y-33071D01*
X35923Y-33074D01*
X36121Y-33074D01*
X36304Y-32998D01*
X36445Y-32858D01*
X36521Y-32674D01*
X36521Y-32476D01*
X36517Y-32466D01*
X36517Y-31643D01*
X36505Y-31448D01*
X36453Y-31323D01*
X36365Y-31303D01*
X36093Y-31575D01*
X36365Y-31847D01*
X36453Y-31827D01*
X36517Y-31643D01*
X36517Y-32466D01*
X36445Y-32293D01*
X36305Y-32152D01*
X36121Y-32076D01*
X35923Y-32076D01*
X35918Y-32078D01*
X35918Y-32057D01*
X35954Y-32070D01*
X36149Y-32058D01*
X36274Y-32006D01*
X36294Y-31918D01*
X36057Y-31681D01*
X36022Y-31646D01*
X35951Y-31575D01*
X36022Y-31504D01*
X36057Y-31469D01*
X36294Y-31232D01*
X36274Y-31144D01*
X36090Y-31080D01*
X35918Y-31090D01*
X35918Y-30633D01*
X36979Y-29573D01*
X36979Y-29572D01*
X37055Y-29459D01*
X37081Y-29325D01*
X37082Y-29325D01*
X37082Y-29249D01*
X37189Y-29142D01*
X37231Y-29039D01*
X37274Y-29142D01*
X37426Y-29293D01*
X37624Y-29376D01*
X37839Y-29376D01*
X38038Y-29294D01*
X38189Y-29142D01*
X38231Y-29039D01*
X38274Y-29142D01*
X38426Y-29293D01*
X38624Y-29376D01*
X38839Y-29376D01*
X39038Y-29294D01*
X39189Y-29142D01*
X39231Y-29039D01*
X39274Y-29142D01*
X39426Y-29293D01*
X39624Y-29376D01*
X39839Y-29376D01*
X40038Y-29294D01*
X40189Y-29142D01*
X40231Y-29039D01*
X40274Y-29142D01*
X40426Y-29293D01*
X40624Y-29376D01*
X40839Y-29376D01*
X41038Y-29294D01*
X41189Y-29142D01*
X41231Y-29039D01*
X41274Y-29142D01*
X41426Y-29293D01*
X41624Y-29376D01*
X41839Y-29376D01*
X42038Y-29294D01*
X42189Y-29142D01*
X42272Y-28944D01*
X42272Y-28729D01*
X42272Y-28301D01*
X42190Y-28102D01*
X42038Y-27951D01*
X41878Y-27884D01*
X42403Y-27884D01*
X42403Y-36604D01*
X42359Y-36560D01*
X42327Y-36591D01*
X42319Y-36556D01*
X42126Y-36489D01*
X41922Y-36500D01*
X41785Y-36556D01*
X41762Y-36647D01*
X42017Y-36902D01*
X42052Y-36937D01*
X42123Y-37008D01*
X42052Y-37079D01*
X42017Y-37114D01*
X41981Y-37150D01*
X41981Y-37008D01*
X41691Y-36718D01*
X41600Y-36741D01*
X41533Y-36934D01*
X41544Y-37138D01*
X41600Y-37275D01*
X41691Y-37298D01*
X41981Y-37008D01*
X41981Y-37150D01*
X41762Y-37369D01*
X41785Y-37460D01*
X41978Y-37527D01*
X42182Y-37516D01*
X42319Y-37460D01*
X42327Y-37424D01*
X42342Y-37439D01*
X42359Y-37456D01*
X42403Y-37412D01*
X42403Y-38769D01*
X42359Y-38725D01*
X42342Y-38742D01*
X42327Y-38756D01*
X42319Y-38721D01*
X42126Y-38654D01*
X41922Y-38665D01*
X41785Y-38721D01*
X41762Y-38812D01*
X42017Y-39067D01*
X42052Y-39102D01*
X42123Y-39173D01*
X42052Y-39244D01*
X42017Y-39279D01*
X41981Y-39315D01*
X41981Y-39173D01*
X41691Y-38883D01*
X41600Y-38906D01*
X41533Y-39099D01*
X41544Y-39303D01*
X41600Y-39440D01*
X41691Y-39463D01*
X41981Y-39173D01*
X41981Y-39315D01*
X41762Y-39534D01*
X41785Y-39625D01*
X41978Y-39692D01*
X42182Y-39681D01*
X42319Y-39625D01*
X42327Y-39589D01*
X42342Y-39604D01*
X42359Y-39621D01*
X42403Y-39577D01*
X42403Y-48297D01*
X42403Y-48297D01*
G37*
G54D18*
X42403Y-48297D02*
X42342Y-48297D01*
X42030Y-48297D01*
X42038Y-48294D01*
X42189Y-48142D01*
X42272Y-47944D01*
X42272Y-47729D01*
X42272Y-47301D01*
X42190Y-47102D01*
X42038Y-46951D01*
X41840Y-46868D01*
X41625Y-46868D01*
X41426Y-46950D01*
X41275Y-47102D01*
X41232Y-47204D01*
X41190Y-47102D01*
X41038Y-46951D01*
X40840Y-46868D01*
X40625Y-46868D01*
X40426Y-46950D01*
X40275Y-47102D01*
X40232Y-47204D01*
X40190Y-47102D01*
X40038Y-46951D01*
X39840Y-46868D01*
X39625Y-46868D01*
X39577Y-46887D01*
X39577Y-39278D01*
X39577Y-39069D01*
X39577Y-37113D01*
X39577Y-36904D01*
X39497Y-36711D01*
X39462Y-36675D01*
X39462Y-35013D01*
X39462Y-34639D01*
X39462Y-31013D01*
X39462Y-30639D01*
X39319Y-30293D01*
X39055Y-30029D01*
X38710Y-29885D01*
X38336Y-29885D01*
X37990Y-30028D01*
X37726Y-30292D01*
X37582Y-30637D01*
X37582Y-31011D01*
X37725Y-31357D01*
X37989Y-31621D01*
X38334Y-31765D01*
X38708Y-31765D01*
X39054Y-31622D01*
X39318Y-31358D01*
X39462Y-31013D01*
X39462Y-34639D01*
X39319Y-34293D01*
X39055Y-34029D01*
X38710Y-33885D01*
X38336Y-33885D01*
X37990Y-34028D01*
X37726Y-34292D01*
X37582Y-34637D01*
X37582Y-35011D01*
X37725Y-35357D01*
X37989Y-35621D01*
X38334Y-35765D01*
X38708Y-35765D01*
X39054Y-35622D01*
X39318Y-35358D01*
X39462Y-35013D01*
X39462Y-36675D01*
X39350Y-36563D01*
X39157Y-36483D01*
X38948Y-36483D01*
X38755Y-36563D01*
X38607Y-36710D01*
X38527Y-36903D01*
X38527Y-37112D01*
X38607Y-37305D01*
X38754Y-37453D01*
X38947Y-37533D01*
X39156Y-37533D01*
X39349Y-37453D01*
X39497Y-37306D01*
X39577Y-37113D01*
X39577Y-39069D01*
X39497Y-38876D01*
X39350Y-38728D01*
X39157Y-38648D01*
X38948Y-38648D01*
X38755Y-38728D01*
X38607Y-38875D01*
X38527Y-39068D01*
X38527Y-39277D01*
X38607Y-39470D01*
X38754Y-39618D01*
X38947Y-39698D01*
X39156Y-39698D01*
X39349Y-39618D01*
X39497Y-39471D01*
X39577Y-39278D01*
X39577Y-46887D01*
X39462Y-46935D01*
X39462Y-45544D01*
X39462Y-45170D01*
X39462Y-41544D01*
X39462Y-41170D01*
X39319Y-40824D01*
X39055Y-40560D01*
X38710Y-40416D01*
X38336Y-40416D01*
X37990Y-40559D01*
X37726Y-40823D01*
X37582Y-41168D01*
X37582Y-41542D01*
X37725Y-41888D01*
X37989Y-42152D01*
X38334Y-42296D01*
X38708Y-42296D01*
X39054Y-42153D01*
X39318Y-41889D01*
X39462Y-41544D01*
X39462Y-45170D01*
X39319Y-44824D01*
X39055Y-44560D01*
X38710Y-44416D01*
X38336Y-44416D01*
X37990Y-44559D01*
X37726Y-44823D01*
X37582Y-45168D01*
X37582Y-45542D01*
X37725Y-45888D01*
X37989Y-46152D01*
X38334Y-46296D01*
X38708Y-46296D01*
X39054Y-46153D01*
X39318Y-45889D01*
X39462Y-45544D01*
X39462Y-46935D01*
X39426Y-46950D01*
X39275Y-47102D01*
X39232Y-47204D01*
X39190Y-47102D01*
X39038Y-46951D01*
X38840Y-46868D01*
X38625Y-46868D01*
X38426Y-46950D01*
X38275Y-47102D01*
X38232Y-47204D01*
X38190Y-47102D01*
X38038Y-46951D01*
X37840Y-46868D01*
X37625Y-46868D01*
X37426Y-46950D01*
X37275Y-47102D01*
X37232Y-47204D01*
X37190Y-47102D01*
X37038Y-46951D01*
X36840Y-46868D01*
X36625Y-46868D01*
X36426Y-46950D01*
X36275Y-47102D01*
X36192Y-47300D01*
X36192Y-47515D01*
X36192Y-47943D01*
X36274Y-48142D01*
X36426Y-48293D01*
X36435Y-48297D01*
X35030Y-48297D01*
X35038Y-48294D01*
X35189Y-48142D01*
X35272Y-47944D01*
X35272Y-47729D01*
X35272Y-47301D01*
X35190Y-47102D01*
X35038Y-46951D01*
X34840Y-46868D01*
X34625Y-46868D01*
X34426Y-46950D01*
X34275Y-47102D01*
X34232Y-47204D01*
X34190Y-47102D01*
X34038Y-46951D01*
X33840Y-46868D01*
X33625Y-46868D01*
X33426Y-46950D01*
X33275Y-47102D01*
X33232Y-47203D01*
X33221Y-47165D01*
X33085Y-46997D01*
X32895Y-46894D01*
X32867Y-46890D01*
X32782Y-46937D01*
X32782Y-47522D01*
X32782Y-47572D01*
X32782Y-47672D01*
X32682Y-47672D01*
X32682Y-47572D01*
X32682Y-47522D01*
X32682Y-46937D01*
X32612Y-46898D01*
X32612Y-44912D01*
X32612Y-44703D01*
X32532Y-44510D01*
X32385Y-44362D01*
X32192Y-44282D01*
X31983Y-44282D01*
X31790Y-44362D01*
X31642Y-44509D01*
X31562Y-44702D01*
X31562Y-44911D01*
X31642Y-45104D01*
X31789Y-45252D01*
X31982Y-45332D01*
X32191Y-45332D01*
X32384Y-45252D01*
X32532Y-45105D01*
X32612Y-44912D01*
X32612Y-46898D01*
X32597Y-46890D01*
X32569Y-46894D01*
X32379Y-46997D01*
X32243Y-47165D01*
X32231Y-47203D01*
X32190Y-47102D01*
X32038Y-46951D01*
X31840Y-46868D01*
X31625Y-46868D01*
X31426Y-46950D01*
X31275Y-47102D01*
X31232Y-47204D01*
X31190Y-47102D01*
X31038Y-46951D01*
X30840Y-46868D01*
X30625Y-46868D01*
X30455Y-46938D01*
X30455Y-43442D01*
X30444Y-43217D01*
X30378Y-43058D01*
X30282Y-43027D01*
X30211Y-43098D01*
X30211Y-42956D01*
X30180Y-42860D01*
X29968Y-42783D01*
X29743Y-42794D01*
X29584Y-42860D01*
X29553Y-42956D01*
X29882Y-43285D01*
X30211Y-42956D01*
X30211Y-43098D01*
X29953Y-43356D01*
X30282Y-43685D01*
X30378Y-43654D01*
X30455Y-43442D01*
X30455Y-46938D01*
X30426Y-46950D01*
X30401Y-46975D01*
X30401Y-46137D01*
X30390Y-45933D01*
X30334Y-45796D01*
X30243Y-45773D01*
X30211Y-45805D01*
X30211Y-43756D01*
X29882Y-43427D01*
X29553Y-43756D01*
X29584Y-43852D01*
X29796Y-43929D01*
X30021Y-43918D01*
X30180Y-43852D01*
X30211Y-43756D01*
X30211Y-45805D01*
X30172Y-45844D01*
X30172Y-45702D01*
X30149Y-45611D01*
X29956Y-45544D01*
X29752Y-45555D01*
X29615Y-45611D01*
X29592Y-45702D01*
X29882Y-45992D01*
X30172Y-45702D01*
X30172Y-45844D01*
X29953Y-46063D01*
X30243Y-46353D01*
X30334Y-46330D01*
X30401Y-46137D01*
X30401Y-46975D01*
X30275Y-47102D01*
X30232Y-47204D01*
X30190Y-47102D01*
X30172Y-47084D01*
X30172Y-46424D01*
X29882Y-46134D01*
X29811Y-46205D01*
X29811Y-46063D01*
X29521Y-45773D01*
X29430Y-45796D01*
X29388Y-45914D01*
X29327Y-45766D01*
X29180Y-45618D01*
X28987Y-45538D01*
X28778Y-45538D01*
X28585Y-45618D01*
X28437Y-45765D01*
X28357Y-45958D01*
X28357Y-46167D01*
X28437Y-46360D01*
X28584Y-46508D01*
X28777Y-46588D01*
X28986Y-46588D01*
X29179Y-46508D01*
X29327Y-46361D01*
X29385Y-46220D01*
X29430Y-46330D01*
X29521Y-46353D01*
X29811Y-46063D01*
X29811Y-46205D01*
X29592Y-46424D01*
X29615Y-46515D01*
X29808Y-46582D01*
X30012Y-46571D01*
X30149Y-46515D01*
X30172Y-46424D01*
X30172Y-47084D01*
X30038Y-46951D01*
X29840Y-46868D01*
X29625Y-46868D01*
X29426Y-46950D01*
X29275Y-47102D01*
X29192Y-47300D01*
X29192Y-47515D01*
X29192Y-47943D01*
X29274Y-48142D01*
X29426Y-48293D01*
X29435Y-48297D01*
X25258Y-48297D01*
X25258Y-27884D01*
X25986Y-27884D01*
X25826Y-27950D01*
X25675Y-28102D01*
X25592Y-28300D01*
X25592Y-28515D01*
X25592Y-28943D01*
X25674Y-29142D01*
X25826Y-29293D01*
X26024Y-29376D01*
X26239Y-29376D01*
X26438Y-29294D01*
X26589Y-29142D01*
X26631Y-29039D01*
X26674Y-29142D01*
X26826Y-29293D01*
X27024Y-29376D01*
X27239Y-29376D01*
X27438Y-29294D01*
X27589Y-29142D01*
X27631Y-29039D01*
X27674Y-29142D01*
X27826Y-29293D01*
X28024Y-29376D01*
X28239Y-29376D01*
X28438Y-29294D01*
X28589Y-29142D01*
X28631Y-29039D01*
X28674Y-29142D01*
X28826Y-29293D01*
X29024Y-29376D01*
X29239Y-29376D01*
X29438Y-29294D01*
X29589Y-29142D01*
X29631Y-29039D01*
X29674Y-29142D01*
X29826Y-29293D01*
X30024Y-29376D01*
X30239Y-29376D01*
X30438Y-29294D01*
X30589Y-29142D01*
X30631Y-29039D01*
X30674Y-29142D01*
X30826Y-29293D01*
X31024Y-29376D01*
X31239Y-29376D01*
X31438Y-29294D01*
X31589Y-29142D01*
X31631Y-29039D01*
X31674Y-29142D01*
X31826Y-29293D01*
X32024Y-29376D01*
X32239Y-29376D01*
X32438Y-29294D01*
X32589Y-29142D01*
X32631Y-29039D01*
X32674Y-29142D01*
X32782Y-29249D01*
X32782Y-32030D01*
X32415Y-32397D01*
X32415Y-31282D01*
X32415Y-31073D01*
X32335Y-30880D01*
X32188Y-30732D01*
X31995Y-30652D01*
X31786Y-30652D01*
X31593Y-30732D01*
X31445Y-30879D01*
X31365Y-31072D01*
X31365Y-31281D01*
X31445Y-31474D01*
X31592Y-31622D01*
X31785Y-31702D01*
X31994Y-31702D01*
X32187Y-31622D01*
X32335Y-31475D01*
X32415Y-31282D01*
X32415Y-32397D01*
X30455Y-34357D01*
X30455Y-32911D01*
X30444Y-32686D01*
X30401Y-32582D01*
X30401Y-30586D01*
X30390Y-30382D01*
X30334Y-30245D01*
X30243Y-30222D01*
X30172Y-30293D01*
X30172Y-30151D01*
X30149Y-30060D01*
X29956Y-29993D01*
X29752Y-30004D01*
X29615Y-30060D01*
X29592Y-30151D01*
X29882Y-30441D01*
X30172Y-30151D01*
X30172Y-30293D01*
X29953Y-30512D01*
X30243Y-30802D01*
X30334Y-30779D01*
X30401Y-30586D01*
X30401Y-32582D01*
X30378Y-32527D01*
X30282Y-32496D01*
X30211Y-32567D01*
X30211Y-32425D01*
X30180Y-32329D01*
X30172Y-32326D01*
X30172Y-30873D01*
X29882Y-30583D01*
X29811Y-30654D01*
X29811Y-30512D01*
X29521Y-30222D01*
X29430Y-30245D01*
X29388Y-30363D01*
X29327Y-30215D01*
X29180Y-30067D01*
X28987Y-29987D01*
X28778Y-29987D01*
X28585Y-30067D01*
X28437Y-30214D01*
X28357Y-30407D01*
X28357Y-30616D01*
X28437Y-30809D01*
X28584Y-30957D01*
X28777Y-31037D01*
X28986Y-31037D01*
X29179Y-30957D01*
X29327Y-30810D01*
X29385Y-30669D01*
X29430Y-30779D01*
X29521Y-30802D01*
X29811Y-30512D01*
X29811Y-30654D01*
X29592Y-30873D01*
X29615Y-30964D01*
X29808Y-31031D01*
X30012Y-31020D01*
X30149Y-30964D01*
X30172Y-30873D01*
X30172Y-32326D01*
X29968Y-32252D01*
X29743Y-32263D01*
X29584Y-32329D01*
X29553Y-32425D01*
X29882Y-32754D01*
X30211Y-32425D01*
X30211Y-32567D01*
X29953Y-32825D01*
X30282Y-33154D01*
X30378Y-33123D01*
X30455Y-32911D01*
X30455Y-34357D01*
X30211Y-34601D01*
X30211Y-33225D01*
X29882Y-32896D01*
X29811Y-32967D01*
X29811Y-32825D01*
X29482Y-32496D01*
X29386Y-32526D01*
X29374Y-32497D01*
X29211Y-32334D01*
X28998Y-32245D01*
X28767Y-32245D01*
X28554Y-32333D01*
X28391Y-32496D01*
X28302Y-32709D01*
X28302Y-32940D01*
X28390Y-33153D01*
X28553Y-33316D01*
X28766Y-33405D01*
X28997Y-33405D01*
X29210Y-33317D01*
X29373Y-33154D01*
X29385Y-33122D01*
X29386Y-33123D01*
X29482Y-33154D01*
X29811Y-32825D01*
X29811Y-32967D01*
X29553Y-33225D01*
X29584Y-33321D01*
X29796Y-33398D01*
X30021Y-33387D01*
X30180Y-33321D01*
X30211Y-33225D01*
X30211Y-34601D01*
X28550Y-36262D01*
X28387Y-36262D01*
X28185Y-36346D01*
X28031Y-36500D01*
X27947Y-36702D01*
X27947Y-36920D01*
X28031Y-37122D01*
X28185Y-37276D01*
X28387Y-37360D01*
X28605Y-37360D01*
X28807Y-37276D01*
X28961Y-37122D01*
X29045Y-36920D01*
X29045Y-36756D01*
X31410Y-34390D01*
X31445Y-34474D01*
X31592Y-34622D01*
X31785Y-34702D01*
X31994Y-34702D01*
X32187Y-34622D01*
X32335Y-34475D01*
X32415Y-34282D01*
X32415Y-34073D01*
X32335Y-33880D01*
X32188Y-33732D01*
X32104Y-33697D01*
X33379Y-32423D01*
X33379Y-32422D01*
X33455Y-32309D01*
X33481Y-32175D01*
X33482Y-32175D01*
X33482Y-29249D01*
X33586Y-29145D01*
X33586Y-36253D01*
X31840Y-38000D01*
X31764Y-38113D01*
X31737Y-38247D01*
X31737Y-41414D01*
X31642Y-41509D01*
X31562Y-41702D01*
X31562Y-41911D01*
X31590Y-41980D01*
X30817Y-41980D01*
X30817Y-36920D01*
X30817Y-36702D01*
X30733Y-36500D01*
X30579Y-36346D01*
X30377Y-36262D01*
X30159Y-36262D01*
X29957Y-36346D01*
X29803Y-36500D01*
X29719Y-36702D01*
X29719Y-36920D01*
X29803Y-37122D01*
X29957Y-37276D01*
X30159Y-37360D01*
X30377Y-37360D01*
X30579Y-37276D01*
X30733Y-37122D01*
X30817Y-36920D01*
X30817Y-41980D01*
X30811Y-41980D01*
X30811Y-39450D01*
X30800Y-39237D01*
X30740Y-39090D01*
X30646Y-39063D01*
X30576Y-39133D01*
X30576Y-38993D01*
X30549Y-38899D01*
X30347Y-38828D01*
X30134Y-38839D01*
X29987Y-38899D01*
X29960Y-38993D01*
X30268Y-39300D01*
X30576Y-38993D01*
X30576Y-39133D01*
X30339Y-39371D01*
X30646Y-39679D01*
X30740Y-39652D01*
X30811Y-39450D01*
X30811Y-41980D01*
X30576Y-41980D01*
X30576Y-39749D01*
X30268Y-39442D01*
X30197Y-39512D01*
X30197Y-39371D01*
X29890Y-39063D01*
X29796Y-39090D01*
X29725Y-39292D01*
X29736Y-39505D01*
X29796Y-39652D01*
X29890Y-39679D01*
X30197Y-39371D01*
X30197Y-39512D01*
X29960Y-39749D01*
X29987Y-39843D01*
X30189Y-39914D01*
X30402Y-39903D01*
X30549Y-39843D01*
X30576Y-39749D01*
X30576Y-41980D01*
X29045Y-41980D01*
X29045Y-39480D01*
X29045Y-39262D01*
X28961Y-39060D01*
X28807Y-38906D01*
X28605Y-38822D01*
X28387Y-38822D01*
X28185Y-38906D01*
X28031Y-39060D01*
X27947Y-39262D01*
X27947Y-39480D01*
X28031Y-39682D01*
X28185Y-39836D01*
X28387Y-39920D01*
X28605Y-39920D01*
X28807Y-39836D01*
X28961Y-39682D01*
X29045Y-39480D01*
X29045Y-41980D01*
X28884Y-41980D01*
X28750Y-42007D01*
X28636Y-42083D01*
X27690Y-43029D01*
X27690Y-41912D01*
X27690Y-41703D01*
X27690Y-34282D01*
X27690Y-34073D01*
X27690Y-31282D01*
X27690Y-31073D01*
X27610Y-30880D01*
X27463Y-30732D01*
X27270Y-30652D01*
X27061Y-30652D01*
X26868Y-30732D01*
X26720Y-30879D01*
X26640Y-31072D01*
X26640Y-31281D01*
X26720Y-31474D01*
X26867Y-31622D01*
X27060Y-31702D01*
X27269Y-31702D01*
X27462Y-31622D01*
X27610Y-31475D01*
X27690Y-31282D01*
X27690Y-34073D01*
X27610Y-33880D01*
X27463Y-33732D01*
X27270Y-33652D01*
X27061Y-33652D01*
X26868Y-33732D01*
X26720Y-33879D01*
X26640Y-34072D01*
X26640Y-34281D01*
X26720Y-34474D01*
X26867Y-34622D01*
X27060Y-34702D01*
X27269Y-34702D01*
X27462Y-34622D01*
X27610Y-34475D01*
X27690Y-34282D01*
X27690Y-41703D01*
X27610Y-41510D01*
X27463Y-41362D01*
X27270Y-41282D01*
X27061Y-41282D01*
X26868Y-41362D01*
X26720Y-41509D01*
X26640Y-41702D01*
X26640Y-41911D01*
X26720Y-42104D01*
X26867Y-42252D01*
X27060Y-42332D01*
X27269Y-42332D01*
X27462Y-42252D01*
X27610Y-42105D01*
X27690Y-41912D01*
X27690Y-43029D01*
X26918Y-43802D01*
X26842Y-43915D01*
X26815Y-44049D01*
X26815Y-44414D01*
X26720Y-44509D01*
X26640Y-44702D01*
X26640Y-44911D01*
X26720Y-45104D01*
X26867Y-45252D01*
X27060Y-45332D01*
X27269Y-45332D01*
X27462Y-45252D01*
X27610Y-45105D01*
X27690Y-44912D01*
X27690Y-44703D01*
X27610Y-44510D01*
X27515Y-44414D01*
X27515Y-44193D01*
X28302Y-43406D01*
X28302Y-43471D01*
X28390Y-43684D01*
X28553Y-43847D01*
X28766Y-43936D01*
X28997Y-43936D01*
X29210Y-43848D01*
X29373Y-43685D01*
X29385Y-43653D01*
X29386Y-43654D01*
X29482Y-43685D01*
X29811Y-43356D01*
X29482Y-43027D01*
X29386Y-43057D01*
X29374Y-43028D01*
X29211Y-42865D01*
X28998Y-42776D01*
X28932Y-42776D01*
X29028Y-42680D01*
X32285Y-42680D01*
X32285Y-42679D01*
X32419Y-42653D01*
X32532Y-42577D01*
X34672Y-40437D01*
X34672Y-41764D01*
X34138Y-42299D01*
X34062Y-42412D01*
X34035Y-42546D01*
X34035Y-42626D01*
X34062Y-42760D01*
X34138Y-42873D01*
X34595Y-43331D01*
X34523Y-43507D01*
X34523Y-43705D01*
X34599Y-43888D01*
X34739Y-44029D01*
X34923Y-44105D01*
X35028Y-44105D01*
X35026Y-44107D01*
X34923Y-44107D01*
X34740Y-44183D01*
X34599Y-44323D01*
X34523Y-44507D01*
X34523Y-44705D01*
X34599Y-44888D01*
X34739Y-45029D01*
X34923Y-45105D01*
X35121Y-45105D01*
X35304Y-45029D01*
X35445Y-44889D01*
X35521Y-44705D01*
X35521Y-44601D01*
X35666Y-44456D01*
X35739Y-44529D01*
X35923Y-44605D01*
X36121Y-44605D01*
X36304Y-44529D01*
X36445Y-44389D01*
X36521Y-44205D01*
X36521Y-44101D01*
X37378Y-43245D01*
X37378Y-43244D01*
X37454Y-43131D01*
X37480Y-42997D01*
X37481Y-42997D01*
X37481Y-39565D01*
X37576Y-39471D01*
X37656Y-39278D01*
X37656Y-39069D01*
X37650Y-39054D01*
X37650Y-37082D01*
X37639Y-36878D01*
X37583Y-36741D01*
X37492Y-36718D01*
X37421Y-36789D01*
X37421Y-36647D01*
X37398Y-36556D01*
X37205Y-36489D01*
X37001Y-36500D01*
X36864Y-36556D01*
X36841Y-36647D01*
X37131Y-36937D01*
X37421Y-36647D01*
X37421Y-36789D01*
X37202Y-37008D01*
X37492Y-37298D01*
X37583Y-37275D01*
X37650Y-37082D01*
X37650Y-39054D01*
X37576Y-38876D01*
X37429Y-38728D01*
X37421Y-38724D01*
X37421Y-37369D01*
X37131Y-37079D01*
X37060Y-37150D01*
X37060Y-37008D01*
X36770Y-36718D01*
X36679Y-36741D01*
X36612Y-36934D01*
X36623Y-37138D01*
X36679Y-37275D01*
X36770Y-37298D01*
X37060Y-37008D01*
X37060Y-37150D01*
X36841Y-37369D01*
X36864Y-37460D01*
X37057Y-37527D01*
X37261Y-37516D01*
X37398Y-37460D01*
X37421Y-37369D01*
X37421Y-38724D01*
X37236Y-38648D01*
X37027Y-38648D01*
X36834Y-38728D01*
X36686Y-38875D01*
X36606Y-39068D01*
X36606Y-39277D01*
X36686Y-39470D01*
X36781Y-39565D01*
X36781Y-42852D01*
X36521Y-43112D01*
X36521Y-43007D01*
X36517Y-42997D01*
X36517Y-42174D01*
X36505Y-41979D01*
X36453Y-41854D01*
X36365Y-41834D01*
X36093Y-42106D01*
X36365Y-42378D01*
X36453Y-42358D01*
X36517Y-42174D01*
X36517Y-42997D01*
X36445Y-42824D01*
X36305Y-42683D01*
X36294Y-42678D01*
X36294Y-42449D01*
X36022Y-42177D01*
X35750Y-42449D01*
X35770Y-42537D01*
X35954Y-42601D01*
X36149Y-42589D01*
X36274Y-42537D01*
X36294Y-42449D01*
X36294Y-42678D01*
X36121Y-42607D01*
X35923Y-42607D01*
X35740Y-42683D01*
X35599Y-42823D01*
X35566Y-42901D01*
X35524Y-42859D01*
X35471Y-42823D01*
X35521Y-42705D01*
X35521Y-42601D01*
X35815Y-42308D01*
X35815Y-42307D01*
X35891Y-42194D01*
X35897Y-42159D01*
X35898Y-42158D01*
X35915Y-42140D01*
X35916Y-42141D01*
X35951Y-42106D01*
X36022Y-42035D01*
X36057Y-42000D01*
X36294Y-41763D01*
X36274Y-41675D01*
X36090Y-41611D01*
X35918Y-41621D01*
X35918Y-34071D01*
X35923Y-34074D01*
X36121Y-34074D01*
X36304Y-33998D01*
X36445Y-33858D01*
X36521Y-33674D01*
X36521Y-33476D01*
X36445Y-33293D01*
X36305Y-33152D01*
X36121Y-33076D01*
X35923Y-33076D01*
X35918Y-33078D01*
X35918Y-33071D01*
X35923Y-33074D01*
X36121Y-33074D01*
X36304Y-32998D01*
X36445Y-32858D01*
X36521Y-32674D01*
X36521Y-32476D01*
X36517Y-32466D01*
X36517Y-31643D01*
X36505Y-31448D01*
X36453Y-31323D01*
X36365Y-31303D01*
X36093Y-31575D01*
X36365Y-31847D01*
X36453Y-31827D01*
X36517Y-31643D01*
X36517Y-32466D01*
X36445Y-32293D01*
X36305Y-32152D01*
X36121Y-32076D01*
X35923Y-32076D01*
X35918Y-32078D01*
X35918Y-32057D01*
X35954Y-32070D01*
X36149Y-32058D01*
X36274Y-32006D01*
X36294Y-31918D01*
X36057Y-31681D01*
X36022Y-31646D01*
X35951Y-31575D01*
X36022Y-31504D01*
X36057Y-31469D01*
X36294Y-31232D01*
X36274Y-31144D01*
X36090Y-31080D01*
X35918Y-31090D01*
X35918Y-30633D01*
X36979Y-29573D01*
X36979Y-29572D01*
X37055Y-29459D01*
X37081Y-29325D01*
X37082Y-29325D01*
X37082Y-29249D01*
X37189Y-29142D01*
X37231Y-29039D01*
X37274Y-29142D01*
X37426Y-29293D01*
X37624Y-29376D01*
X37839Y-29376D01*
X38038Y-29294D01*
X38189Y-29142D01*
X38231Y-29039D01*
X38274Y-29142D01*
X38426Y-29293D01*
X38624Y-29376D01*
X38839Y-29376D01*
X39038Y-29294D01*
X39189Y-29142D01*
X39231Y-29039D01*
X39274Y-29142D01*
X39426Y-29293D01*
X39624Y-29376D01*
X39839Y-29376D01*
X40038Y-29294D01*
X40189Y-29142D01*
X40231Y-29039D01*
X40274Y-29142D01*
X40426Y-29293D01*
X40624Y-29376D01*
X40839Y-29376D01*
X41038Y-29294D01*
X41189Y-29142D01*
X41231Y-29039D01*
X41274Y-29142D01*
X41426Y-29293D01*
X41624Y-29376D01*
X41839Y-29376D01*
X42038Y-29294D01*
X42189Y-29142D01*
X42272Y-28944D01*
X42272Y-28729D01*
X42272Y-28301D01*
X42190Y-28102D01*
X42038Y-27951D01*
X41878Y-27884D01*
X42403Y-27884D01*
X42403Y-36604D01*
X42359Y-36560D01*
X42327Y-36591D01*
X42319Y-36556D01*
X42126Y-36489D01*
X41922Y-36500D01*
X41785Y-36556D01*
X41762Y-36647D01*
X42017Y-36902D01*
X42052Y-36937D01*
X42123Y-37008D01*
X42052Y-37079D01*
X42017Y-37114D01*
X41981Y-37150D01*
X41981Y-37008D01*
X41691Y-36718D01*
X41600Y-36741D01*
X41533Y-36934D01*
X41544Y-37138D01*
X41600Y-37275D01*
X41691Y-37298D01*
X41981Y-37008D01*
X41981Y-37150D01*
X41762Y-37369D01*
X41785Y-37460D01*
X41978Y-37527D01*
X42182Y-37516D01*
X42319Y-37460D01*
X42327Y-37424D01*
X42342Y-37439D01*
X42359Y-37456D01*
X42403Y-37412D01*
X42403Y-38769D01*
X42359Y-38725D01*
X42342Y-38742D01*
X42327Y-38756D01*
X42319Y-38721D01*
X42126Y-38654D01*
X41922Y-38665D01*
X41785Y-38721D01*
X41762Y-38812D01*
X42017Y-39067D01*
X42052Y-39102D01*
X42123Y-39173D01*
X42052Y-39244D01*
X42017Y-39279D01*
X41981Y-39315D01*
X41981Y-39173D01*
X41691Y-38883D01*
X41600Y-38906D01*
X41533Y-39099D01*
X41544Y-39303D01*
X41600Y-39440D01*
X41691Y-39463D01*
X41981Y-39173D01*
X41981Y-39315D01*
X41762Y-39534D01*
X41785Y-39625D01*
X41978Y-39692D01*
X42182Y-39681D01*
X42319Y-39625D01*
X42327Y-39589D01*
X42342Y-39604D01*
X42359Y-39621D01*
X42403Y-39577D01*
X42403Y-48297D01*
M02*
